<svg width="173" height="42" viewBox="0 0 173 42" fill="none" xmlns="http://www.w3.org/2000/svg">
<path d="M0.84 41.768V11.816H6.6V6.184H12.36V0.487999H19.4V6.184H25.16V11.816H30.984V41.768H23.88V30.376H7.88V41.768H0.84ZM7.88 23.144H23.88V13.352H18.184V7.72H13.576V13.352H7.88V23.144ZM44.475 41.768V36.072H38.715V6.184H44.475V0.487999H63.035V6.184H68.859V18.984H61.755V7.72H45.755V34.6H61.755V30.376H56.059V24.68H50.235V17.576H57.275V23.144H68.859V36.072H63.035V41.768H44.475ZM82.35 41.768V36.072H76.59V6.184H82.35V0.487999H100.91V6.184H106.734V13.352H99.63V7.72H83.63V17.576H95.15V24.68H83.63V34.6H99.63V28.84H106.734V36.072H100.91V41.768H82.35ZM133.038 41.768V36.072H127.278V6.184H133.038V0.487999H151.598V6.184H157.422V36.072H151.598V41.768H133.038ZM134.318 34.6H150.318V7.72H134.318V34.6ZM165.153 35.88V28.648H172.193V35.88H165.153ZM165.153 24.744V17.576H172.193V24.744H165.153Z" fill="black"/>
</svg>
