<svg width="618" height="74" viewBox="0 0 618 74" fill="none" xmlns="http://www.w3.org/2000/svg">
<path d="M91.9141 37.48V33.92H88.3141V15.24H91.9141V11.68H103.514V15.24H107.154V23.24H103.514V25.84H107.154V33.92H103.514V37.48H91.9141ZM92.7141 33H102.714V26.8H95.5141V22.36H102.714V16.2H92.7141V33ZM115.586 37.48V33.92H111.986V15.24H115.586V11.68H127.186V15.24H130.826V19.72H126.386V16.2H116.386V22.36H123.586V26.8H116.386V33H126.386V29.4H130.826V33.92H127.186V37.48H115.586ZM142.858 37.48V16.2H140.058V19.72H135.658V15.24H139.258V11.68H150.858V15.24H154.498V19.72H150.058V16.2H147.258V37.48H142.858ZM164.147 37.48V16.2H161.347V19.72H156.947V15.24H160.547V11.68H172.147V15.24H175.787V19.72H171.347V16.2H168.547V37.48H164.147ZM183.008 37.48V33.92H179.408V15.24H183.008V11.68H194.608V15.24H198.248V19.72H193.808V16.2H183.808V22.36H191.008V26.8H183.808V33H193.808V29.4H198.248V33.92H194.608V37.48H183.008ZM203.08 37.48V15.24H206.68V11.68H218.28V15.24H221.92V26.8H218.28V30.36H216.52V33H220.08V37.48H215.72V33.92H212.08V30.36H207.48V37.48H203.08ZM207.48 25.84H217.48V16.2H207.48V25.84ZM238.359 37.48V33.92H234.759V11.68H239.159V33H249.159V29.4H253.599V33.92H249.959V37.48H238.359ZM262.031 37.48V33.92H258.431V11.68H262.831V33H272.831V11.68H277.271V33.92H273.631V37.48H262.031ZM285.703 37.48V33.92H282.103V15.24H285.703V11.68H297.303V15.24H300.943V23.24H296.503V16.2H286.503V33H296.503V25.84H300.943V33.92H297.303V37.48H285.703ZM305.775 37.48V15.24H309.375V11.68H313.735V16.2H310.175V22.36H312.975V18.76H316.615V15.24H320.175V11.68H324.615V16.2H320.975V19.72H317.375V23.24H313.735V25.84H317.375V29.4H320.975V33H324.615V37.48H320.175V33.92H316.615V30.36H312.975V26.8H310.175V37.48H305.775ZM337.455 37.48V11.68H341.855V15.24H345.415V18.76H349.055V29.4H351.855V11.68H356.295V37.48H351.855V33.92H348.295V30.36H344.655V19.72H341.855V37.48H337.455ZM364.727 37.48V33.92H361.127V15.24H364.727V11.68H376.327V15.24H379.967V19.72H375.527V16.2H365.527V22.36H372.727V26.8H365.527V33H375.527V29.4H379.967V33.92H376.327V37.48H364.727ZM384.798 37.48V33H388.398V25.84H391.998V23.24H388.398V16.2H384.798V11.68H389.198V15.24H392.758V22.36H395.638V15.24H399.198V11.68H403.638V16.2H399.998V23.24H396.398V25.84H399.998V33H403.638V37.48H399.198V33.92H395.638V26.8H392.758V33.92H389.198V37.48H384.798ZM414.069 37.48V16.2H411.269V19.72H406.869V15.24H410.469V11.68H422.069V15.24H425.709V19.72H421.269V16.2H418.469V37.48H414.069ZM442.148 37.48V33.92H438.548V11.68H442.948V33H452.948V29.4H457.388V33.92H453.748V37.48H442.148ZM462.22 37.48V33H465.82V16.2H462.22V11.68H473.82V16.2H470.18V33H473.82V37.48H462.22ZM478.666 37.48V11.68H493.866V15.24H497.506V19.72H493.066V16.2H483.066V22.36H490.266V26.8H483.066V37.48H478.666ZM505.156 37.48V33.92H501.556V15.24H505.156V11.68H516.756V15.24H520.396V19.72H515.956V16.2H505.956V22.36H513.156V26.8H505.956V33H515.956V29.4H520.396V33.92H516.756V37.48H505.156ZM525.228 37V32.48H529.628V37H525.228Z" fill="black"/>
</svg>
