<svg width="809" height="223" viewBox="0 0 809 223" fill="none" xmlns="http://www.w3.org/2000/svg">
<mask id="path-1-outside-1_161_36" maskUnits="userSpaceOnUse" x="0" y="0" width="809" height="223" fill="black">
<rect fill="white" width="809" height="223"/>
<path d="M225.673 20.216C226.867 21.9227 227.465 23.8427 227.465 25.976C227.465 28.7067 226.697 31.1387 225.161 33.272C223.881 35.2347 222.217 36.8987 220.169 38.264C218.206 39.6293 216.073 40.7813 213.769 41.72C211.465 42.5733 209.075 43.2133 206.601 43.64C204.126 44.0667 201.779 44.28 199.561 44.28C191.881 44.28 184.457 43 177.289 40.44C170.121 37.7947 163.166 34.6373 156.425 30.968C155.486 31.5653 154.462 32.248 153.353 33.016C152.243 33.784 150.963 34.7227 149.513 35.832C145.161 38.904 141.107 42.232 137.353 45.816C133.598 49.3147 130.099 52.9413 126.857 56.696C123.785 60.28 120.67 64.3333 117.513 68.856C114.355 73.2933 111.497 77.944 108.937 82.808C106.377 87.672 104.286 92.5787 102.665 97.528C101.043 102.477 100.233 107.256 100.233 111.864C100.233 113.997 100.531 116.003 101.129 117.88C101.726 119.757 102.622 121.421 103.817 122.872C105.011 124.323 106.505 125.475 108.297 126.328C110.089 127.181 112.222 127.608 114.697 127.608C116.403 127.608 118.11 127.437 119.817 127.096C121.523 126.755 123.187 126.328 124.809 125.816C128.393 124.621 131.891 122.915 135.305 120.696C138.803 118.477 142.217 115.917 145.545 113.016C148.873 110.115 152.115 107 155.273 103.672C158.515 100.344 161.758 96.9307 165.001 93.432C168.329 89.848 171.699 86.3067 175.113 82.808C178.526 79.224 182.025 75.8533 185.609 72.696C189.193 69.4533 192.905 66.5093 196.745 63.864C200.585 61.2187 204.553 59.0427 208.649 57.336C210.355 56.6533 212.19 56.056 214.153 55.544C216.115 55.032 218.206 54.5627 220.425 54.136V56.568C218.462 56.9093 216.627 57.336 214.921 57.848C213.299 58.36 211.55 59 209.673 59.768C205.065 61.816 200.585 64.6747 196.233 68.344C191.966 71.928 187.827 76.1093 183.817 80.888C179.806 85.6667 175.923 90.872 172.169 96.504C168.414 102.136 164.787 107.939 161.289 113.912C157.875 119.8 154.59 125.773 151.433 131.832C148.361 137.891 145.417 143.693 142.601 149.24C141.662 151.117 140.723 152.909 139.785 154.616C138.846 156.408 137.907 158.243 136.969 160.12C141.577 161.741 146.014 163.021 150.281 163.96C154.547 164.984 158.601 165.496 162.441 165.496C166.963 165.496 171.358 164.685 175.625 163.064C179.891 161.528 184.03 158.627 188.041 154.36L189.321 155.64C185.054 160.163 180.702 163.32 176.265 165.112C171.827 166.989 167.219 167.928 162.441 167.928C158.174 167.928 153.822 167.373 149.385 166.264C145.033 165.24 140.51 163.917 135.817 162.296C133.683 166.307 131.721 169.976 129.929 173.304C128.137 176.632 126.473 179.491 124.937 181.88C120.67 188.451 115.465 194.211 109.321 199.16C103.262 204.195 96.6485 208.376 89.4805 211.704C82.3978 215.032 74.9312 217.549 67.0805 219.256C59.3152 220.963 51.5498 221.816 43.7845 221.816C38.6645 221.816 33.5872 221.261 28.5525 220.152C23.6032 219.043 19.1232 217.208 15.1125 214.648C11.1018 212.173 7.85917 208.845 5.3845 204.664C2.90983 200.483 1.6725 195.32 1.6725 189.176C1.6725 181.155 3.37917 173.901 6.7925 167.416C10.2058 161.016 14.6858 155.555 20.2325 151.032C25.8645 146.595 32.1792 143.181 39.1765 140.792C46.2592 138.403 53.4272 137.208 60.6805 137.208C65.8005 137.208 70.7072 137.635 75.4005 138.488C80.0938 139.256 84.5738 140.28 88.8405 141.56C93.1072 142.84 97.2032 144.248 101.129 145.784C105.054 147.405 108.809 148.984 112.393 150.52C114.441 151.459 116.489 152.355 118.537 153.208C120.585 154.061 122.59 154.829 124.553 155.512L126.217 156.024C127.923 153.464 129.673 150.776 131.465 147.96C133.257 145.144 135.091 142.243 136.969 139.256C141.406 132.344 145.971 125.219 150.665 117.88C155.443 110.541 160.393 103.416 165.513 96.504C162.27 100.003 159.027 103.416 155.785 106.744C152.627 109.987 149.385 113.016 146.057 115.832C142.814 118.648 139.486 121.165 136.073 123.384C132.659 125.517 129.118 127.139 125.449 128.248C123.742 128.76 121.993 129.187 120.201 129.528C118.494 129.869 116.702 130.04 114.825 130.04C111.411 130.04 108.169 129.485 105.097 128.376C102.025 127.267 99.2938 125.688 96.9045 123.64C94.6005 121.592 92.7658 119.075 91.4005 116.088C90.0352 113.016 89.3525 109.56 89.3525 105.72C89.3525 100.515 90.2485 95.2667 92.0405 89.976C93.8325 84.6 96.1792 79.4373 99.0805 74.488C101.982 69.4533 105.225 64.7173 108.809 60.28C112.478 55.8427 116.147 51.8747 119.817 48.376C122.803 45.56 126.003 42.8293 129.417 40.184C132.83 37.4533 136.457 34.8933 140.297 32.504C142.43 31.224 144.137 30.2427 145.417 29.56C146.697 28.792 148.147 27.9813 149.769 27.128L144.008 23.672C140.083 21.2827 136.073 18.936 131.977 16.632C127.966 14.328 123.827 12.28 119.561 10.488C115.294 8.69599 110.899 7.24532 106.377 6.13599C101.854 5.02666 97.2032 4.472 92.4245 4.472C85.8538 4.472 79.4112 5.752 73.0965 8.312C66.7818 10.7867 61.1072 14.2853 56.0725 18.808C51.1232 23.3307 47.1125 28.7067 44.0405 34.936C41.0538 41.08 39.5605 47.8213 39.5605 55.16C39.5605 65.4853 42.4192 73.848 48.1365 80.248C53.9392 86.648 62.1312 90.5733 72.7125 92.024L72.5845 93.304C66.6965 93.304 61.2352 92.3653 56.2005 90.488C51.2512 88.6107 46.8992 86.008 43.1445 82.68C39.4752 79.2667 36.5738 75.2133 34.4405 70.52C32.3925 65.8267 31.3685 60.7067 31.3685 55.16C31.3685 46.968 32.9472 39.544 36.1045 32.888C39.3472 26.232 43.6138 20.5573 48.9045 15.864C54.1952 11.1707 60.2538 7.58666 67.0805 5.112C73.9072 2.55199 80.9898 1.27199 88.3285 1.27199C93.9605 1.27199 99.3365 1.91199 104.457 3.19199C109.662 4.38666 114.654 6.008 119.433 8.056C124.211 10.104 128.862 12.408 133.385 14.968C137.993 17.528 142.473 20.088 146.825 22.648L152.201 25.976C159.966 22.136 168.243 18.9787 177.033 16.504C185.907 13.944 195.507 12.664 205.833 12.664C207.625 12.664 209.459 12.792 211.337 13.048C213.214 13.304 215.049 13.7307 216.841 14.328C218.633 14.84 220.297 15.608 221.833 16.632C223.369 17.5707 224.649 18.7653 225.673 20.216ZM115.465 171.256C116.915 169.293 118.366 167.245 119.817 165.112C121.353 163.064 122.974 160.717 124.681 158.072C124.425 157.901 124.169 157.816 123.913 157.816C123.742 157.816 123.571 157.773 123.401 157.688C119.134 156.067 114.697 154.445 110.089 152.824C105.566 151.203 100.915 149.752 96.1365 148.472C91.3578 147.192 86.4085 146.125 81.2885 145.272C76.2538 144.504 71.0485 144.12 65.6725 144.12C61.4058 144.12 56.8832 144.461 52.1045 145.144C47.4112 145.912 42.8032 147.064 38.2805 148.6C33.7578 150.221 29.4058 152.227 25.2245 154.616C21.1285 157.005 17.5018 159.864 14.3445 163.192C11.1872 166.52 8.66983 170.317 6.7925 174.584C5.0005 178.936 4.1045 183.757 4.1045 189.048C4.1045 193.912 5.0005 198.179 6.7925 201.848C8.5845 205.517 11.0165 208.547 14.0885 210.936C17.2458 213.411 20.9152 215.245 25.0965 216.44C29.3632 217.72 33.9285 218.36 38.7925 218.36C46.7285 218.36 54.3232 217.037 61.5765 214.392C68.8298 211.747 75.6565 208.205 82.0565 203.768C88.4565 199.416 94.4298 194.381 99.9765 188.664C105.609 183.032 110.771 177.229 115.465 171.256ZM225.033 26.104C225.033 24.568 224.563 23.0747 223.625 21.624C222.771 20.344 221.705 19.32 220.425 18.552C219.145 17.6987 217.737 17.0587 216.201 16.632C214.665 16.12 213.043 15.7787 211.337 15.608C209.715 15.352 208.137 15.224 206.601 15.224C197.214 15.224 188.595 16.632 180.745 19.448C172.894 22.1787 165.555 25.592 158.729 29.688C165.129 33.272 171.657 36.216 178.313 38.52C185.054 40.7387 192.137 41.848 199.561 41.848C201.523 41.848 203.614 41.6347 205.833 41.208C208.051 40.7813 210.227 40.1413 212.361 39.288C214.579 38.4347 216.627 37.4107 218.505 36.216C220.382 34.936 221.961 33.4853 223.241 31.864C223.582 31.1813 223.966 30.2853 224.393 29.176C224.819 27.9813 225.033 26.9573 225.033 26.104ZM185.718 139L219.382 47.48H232.31L266.102 139H253.558L243.83 111.096H207.35L197.494 139H185.718ZM221.558 71.032L210.678 101.752H240.63L230.134 71.032C228.342 65.912 226.038 58.104 226.038 58.104H225.782C225.782 58.104 223.35 65.784 221.558 71.032ZM276.014 139V47.48H290.734L320.43 123.512H320.686L350.126 47.48H365.102V139H354.094V63.736H353.838C353.838 63.736 351.406 70.904 349.742 75.256L324.654 139H315.822L290.734 75.256C288.942 70.648 286.638 63.736 286.638 63.736H286.382V139H276.014ZM382.264 139V47.48H446.904V57.592H393.784V86.52H442.04V96.248H393.784V128.376H448.44V139H382.264ZM523.608 140.92C495.96 140.92 478.808 120.568 478.808 93.176C478.808 65.784 495.96 45.432 523.608 45.432C551.256 45.432 568.408 65.784 568.408 93.176C568.408 120.568 551.256 140.92 523.608 140.92ZM523.608 130.808C545.112 130.808 556.632 114.68 556.632 93.176C556.632 71.672 545.112 55.416 523.608 55.416C502.104 55.416 490.583 71.672 490.583 93.176C490.583 114.68 502.104 130.808 523.608 130.808ZM602.215 139L570.343 47.48H582.759L605.287 115.576C606.694 119.8 608.871 127.864 608.871 127.864H609.127C609.127 127.864 611.303 119.672 612.711 115.576L634.983 47.48H647.015L614.887 139H602.215ZM656.889 139V47.48H721.529V57.592H668.409V86.52H716.665V96.248H668.409V128.376H723.065V139H656.889ZM736.514 139V47.48H779.266C795.394 47.48 806.274 57.592 806.274 72.568C806.274 83.704 801.41 91.64 790.402 95.224V95.608C799.746 98.936 802.69 105.336 803.586 118.904C804.61 133.624 806.146 137.336 807.81 138.488V139H795.394C793.474 137.336 793.09 133.88 792.066 118.52C791.17 105.08 785.794 100.344 773.506 100.344H748.034V139H736.514ZM748.034 57.464V91H775.17C787.97 91 794.37 84.6 794.37 74.232C794.37 63.096 789.25 57.464 775.81 57.464H748.034Z"/>
</mask>
<path d="M225.673 20.216C226.867 21.9227 227.465 23.8427 227.465 25.976C227.465 28.7067 226.697 31.1387 225.161 33.272C223.881 35.2347 222.217 36.8987 220.169 38.264C218.206 39.6293 216.073 40.7813 213.769 41.72C211.465 42.5733 209.075 43.2133 206.601 43.64C204.126 44.0667 201.779 44.28 199.561 44.28C191.881 44.28 184.457 43 177.289 40.44C170.121 37.7947 163.166 34.6373 156.425 30.968C155.486 31.5653 154.462 32.248 153.353 33.016C152.243 33.784 150.963 34.7227 149.513 35.832C145.161 38.904 141.107 42.232 137.353 45.816C133.598 49.3147 130.099 52.9413 126.857 56.696C123.785 60.28 120.67 64.3333 117.513 68.856C114.355 73.2933 111.497 77.944 108.937 82.808C106.377 87.672 104.286 92.5787 102.665 97.528C101.043 102.477 100.233 107.256 100.233 111.864C100.233 113.997 100.531 116.003 101.129 117.88C101.726 119.757 102.622 121.421 103.817 122.872C105.011 124.323 106.505 125.475 108.297 126.328C110.089 127.181 112.222 127.608 114.697 127.608C116.403 127.608 118.11 127.437 119.817 127.096C121.523 126.755 123.187 126.328 124.809 125.816C128.393 124.621 131.891 122.915 135.305 120.696C138.803 118.477 142.217 115.917 145.545 113.016C148.873 110.115 152.115 107 155.273 103.672C158.515 100.344 161.758 96.9307 165.001 93.432C168.329 89.848 171.699 86.3067 175.113 82.808C178.526 79.224 182.025 75.8533 185.609 72.696C189.193 69.4533 192.905 66.5093 196.745 63.864C200.585 61.2187 204.553 59.0427 208.649 57.336C210.355 56.6533 212.19 56.056 214.153 55.544C216.115 55.032 218.206 54.5627 220.425 54.136V56.568C218.462 56.9093 216.627 57.336 214.921 57.848C213.299 58.36 211.55 59 209.673 59.768C205.065 61.816 200.585 64.6747 196.233 68.344C191.966 71.928 187.827 76.1093 183.817 80.888C179.806 85.6667 175.923 90.872 172.169 96.504C168.414 102.136 164.787 107.939 161.289 113.912C157.875 119.8 154.59 125.773 151.433 131.832C148.361 137.891 145.417 143.693 142.601 149.24C141.662 151.117 140.723 152.909 139.785 154.616C138.846 156.408 137.907 158.243 136.969 160.12C141.577 161.741 146.014 163.021 150.281 163.96C154.547 164.984 158.601 165.496 162.441 165.496C166.963 165.496 171.358 164.685 175.625 163.064C179.891 161.528 184.03 158.627 188.041 154.36L189.321 155.64C185.054 160.163 180.702 163.32 176.265 165.112C171.827 166.989 167.219 167.928 162.441 167.928C158.174 167.928 153.822 167.373 149.385 166.264C145.033 165.24 140.51 163.917 135.817 162.296C133.683 166.307 131.721 169.976 129.929 173.304C128.137 176.632 126.473 179.491 124.937 181.88C120.67 188.451 115.465 194.211 109.321 199.16C103.262 204.195 96.6485 208.376 89.4805 211.704C82.3978 215.032 74.9312 217.549 67.0805 219.256C59.3152 220.963 51.5498 221.816 43.7845 221.816C38.6645 221.816 33.5872 221.261 28.5525 220.152C23.6032 219.043 19.1232 217.208 15.1125 214.648C11.1018 212.173 7.85917 208.845 5.3845 204.664C2.90983 200.483 1.6725 195.32 1.6725 189.176C1.6725 181.155 3.37917 173.901 6.7925 167.416C10.2058 161.016 14.6858 155.555 20.2325 151.032C25.8645 146.595 32.1792 143.181 39.1765 140.792C46.2592 138.403 53.4272 137.208 60.6805 137.208C65.8005 137.208 70.7072 137.635 75.4005 138.488C80.0938 139.256 84.5738 140.28 88.8405 141.56C93.1072 142.84 97.2032 144.248 101.129 145.784C105.054 147.405 108.809 148.984 112.393 150.52C114.441 151.459 116.489 152.355 118.537 153.208C120.585 154.061 122.59 154.829 124.553 155.512L126.217 156.024C127.923 153.464 129.673 150.776 131.465 147.96C133.257 145.144 135.091 142.243 136.969 139.256C141.406 132.344 145.971 125.219 150.665 117.88C155.443 110.541 160.393 103.416 165.513 96.504C162.27 100.003 159.027 103.416 155.785 106.744C152.627 109.987 149.385 113.016 146.057 115.832C142.814 118.648 139.486 121.165 136.073 123.384C132.659 125.517 129.118 127.139 125.449 128.248C123.742 128.76 121.993 129.187 120.201 129.528C118.494 129.869 116.702 130.04 114.825 130.04C111.411 130.04 108.169 129.485 105.097 128.376C102.025 127.267 99.2938 125.688 96.9045 123.64C94.6005 121.592 92.7658 119.075 91.4005 116.088C90.0352 113.016 89.3525 109.56 89.3525 105.72C89.3525 100.515 90.2485 95.2667 92.0405 89.976C93.8325 84.6 96.1792 79.4373 99.0805 74.488C101.982 69.4533 105.225 64.7173 108.809 60.28C112.478 55.8427 116.147 51.8747 119.817 48.376C122.803 45.56 126.003 42.8293 129.417 40.184C132.83 37.4533 136.457 34.8933 140.297 32.504C142.43 31.224 144.137 30.2427 145.417 29.56C146.697 28.792 148.147 27.9813 149.769 27.128L144.008 23.672C140.083 21.2827 136.073 18.936 131.977 16.632C127.966 14.328 123.827 12.28 119.561 10.488C115.294 8.69599 110.899 7.24532 106.377 6.13599C101.854 5.02666 97.2032 4.472 92.4245 4.472C85.8538 4.472 79.4112 5.752 73.0965 8.312C66.7818 10.7867 61.1072 14.2853 56.0725 18.808C51.1232 23.3307 47.1125 28.7067 44.0405 34.936C41.0538 41.08 39.5605 47.8213 39.5605 55.16C39.5605 65.4853 42.4192 73.848 48.1365 80.248C53.9392 86.648 62.1312 90.5733 72.7125 92.024L72.5845 93.304C66.6965 93.304 61.2352 92.3653 56.2005 90.488C51.2512 88.6107 46.8992 86.008 43.1445 82.68C39.4752 79.2667 36.5738 75.2133 34.4405 70.52C32.3925 65.8267 31.3685 60.7067 31.3685 55.16C31.3685 46.968 32.9472 39.544 36.1045 32.888C39.3472 26.232 43.6138 20.5573 48.9045 15.864C54.1952 11.1707 60.2538 7.58666 67.0805 5.112C73.9072 2.55199 80.9898 1.27199 88.3285 1.27199C93.9605 1.27199 99.3365 1.91199 104.457 3.19199C109.662 4.38666 114.654 6.008 119.433 8.056C124.211 10.104 128.862 12.408 133.385 14.968C137.993 17.528 142.473 20.088 146.825 22.648L152.201 25.976C159.966 22.136 168.243 18.9787 177.033 16.504C185.907 13.944 195.507 12.664 205.833 12.664C207.625 12.664 209.459 12.792 211.337 13.048C213.214 13.304 215.049 13.7307 216.841 14.328C218.633 14.84 220.297 15.608 221.833 16.632C223.369 17.5707 224.649 18.7653 225.673 20.216ZM115.465 171.256C116.915 169.293 118.366 167.245 119.817 165.112C121.353 163.064 122.974 160.717 124.681 158.072C124.425 157.901 124.169 157.816 123.913 157.816C123.742 157.816 123.571 157.773 123.401 157.688C119.134 156.067 114.697 154.445 110.089 152.824C105.566 151.203 100.915 149.752 96.1365 148.472C91.3578 147.192 86.4085 146.125 81.2885 145.272C76.2538 144.504 71.0485 144.12 65.6725 144.12C61.4058 144.12 56.8832 144.461 52.1045 145.144C47.4112 145.912 42.8032 147.064 38.2805 148.6C33.7578 150.221 29.4058 152.227 25.2245 154.616C21.1285 157.005 17.5018 159.864 14.3445 163.192C11.1872 166.52 8.66983 170.317 6.7925 174.584C5.0005 178.936 4.1045 183.757 4.1045 189.048C4.1045 193.912 5.0005 198.179 6.7925 201.848C8.5845 205.517 11.0165 208.547 14.0885 210.936C17.2458 213.411 20.9152 215.245 25.0965 216.44C29.3632 217.72 33.9285 218.36 38.7925 218.36C46.7285 218.36 54.3232 217.037 61.5765 214.392C68.8298 211.747 75.6565 208.205 82.0565 203.768C88.4565 199.416 94.4298 194.381 99.9765 188.664C105.609 183.032 110.771 177.229 115.465 171.256ZM225.033 26.104C225.033 24.568 224.563 23.0747 223.625 21.624C222.771 20.344 221.705 19.32 220.425 18.552C219.145 17.6987 217.737 17.0587 216.201 16.632C214.665 16.12 213.043 15.7787 211.337 15.608C209.715 15.352 208.137 15.224 206.601 15.224C197.214 15.224 188.595 16.632 180.745 19.448C172.894 22.1787 165.555 25.592 158.729 29.688C165.129 33.272 171.657 36.216 178.313 38.52C185.054 40.7387 192.137 41.848 199.561 41.848C201.523 41.848 203.614 41.6347 205.833 41.208C208.051 40.7813 210.227 40.1413 212.361 39.288C214.579 38.4347 216.627 37.4107 218.505 36.216C220.382 34.936 221.961 33.4853 223.241 31.864C223.582 31.1813 223.966 30.2853 224.393 29.176C224.819 27.9813 225.033 26.9573 225.033 26.104ZM185.718 139L219.382 47.48H232.31L266.102 139H253.558L243.83 111.096H207.35L197.494 139H185.718ZM221.558 71.032L210.678 101.752H240.63L230.134 71.032C228.342 65.912 226.038 58.104 226.038 58.104H225.782C225.782 58.104 223.35 65.784 221.558 71.032ZM276.014 139V47.48H290.734L320.43 123.512H320.686L350.126 47.48H365.102V139H354.094V63.736H353.838C353.838 63.736 351.406 70.904 349.742 75.256L324.654 139H315.822L290.734 75.256C288.942 70.648 286.638 63.736 286.638 63.736H286.382V139H276.014ZM382.264 139V47.48H446.904V57.592H393.784V86.52H442.04V96.248H393.784V128.376H448.44V139H382.264ZM523.608 140.92C495.96 140.92 478.808 120.568 478.808 93.176C478.808 65.784 495.96 45.432 523.608 45.432C551.256 45.432 568.408 65.784 568.408 93.176C568.408 120.568 551.256 140.92 523.608 140.92ZM523.608 130.808C545.112 130.808 556.632 114.68 556.632 93.176C556.632 71.672 545.112 55.416 523.608 55.416C502.104 55.416 490.583 71.672 490.583 93.176C490.583 114.68 502.104 130.808 523.608 130.808ZM602.215 139L570.343 47.48H582.759L605.287 115.576C606.694 119.8 608.871 127.864 608.871 127.864H609.127C609.127 127.864 611.303 119.672 612.711 115.576L634.983 47.48H647.015L614.887 139H602.215ZM656.889 139V47.48H721.529V57.592H668.409V86.52H716.665V96.248H668.409V128.376H723.065V139H656.889ZM736.514 139V47.48H779.266C795.394 47.48 806.274 57.592 806.274 72.568C806.274 83.704 801.41 91.64 790.402 95.224V95.608C799.746 98.936 802.69 105.336 803.586 118.904C804.61 133.624 806.146 137.336 807.81 138.488V139H795.394C793.474 137.336 793.09 133.88 792.066 118.52C791.17 105.08 785.794 100.344 773.506 100.344H748.034V139H736.514ZM748.034 57.464V91H775.17C787.97 91 794.37 84.6 794.37 74.232C794.37 63.096 789.25 57.464 775.81 57.464H748.034Z" fill="black"/>
<path d="M225.673 20.216L226.492 19.6425L226.489 19.6393L225.673 20.216ZM225.161 33.272L224.349 32.6877L224.335 32.7064L224.323 32.7257L225.161 33.272ZM220.169 38.264L219.614 37.4319L219.606 37.4374L219.597 37.4431L220.169 38.264ZM213.769 41.72L214.116 42.6577L214.131 42.6522L214.146 42.6461L213.769 41.72ZM206.601 43.64L206.431 42.6545L206.431 42.6545L206.601 43.64ZM177.289 40.44L176.942 41.3782L176.952 41.3817L177.289 40.44ZM156.425 30.968L156.903 30.0897L156.385 29.8079L155.888 30.1243L156.425 30.968ZM153.353 33.016L152.783 32.1938L152.783 32.1938L153.353 33.016ZM149.513 35.832L150.089 36.649L150.105 36.6379L150.12 36.6263L149.513 35.832ZM137.353 45.816L138.034 46.5477L138.043 46.5394L137.353 45.816ZM126.857 56.696L126.1 56.0424L126.097 56.0452L126.857 56.696ZM117.513 68.856L118.327 69.4358L118.332 69.4284L117.513 68.856ZM108.937 82.808L109.821 83.2737L109.821 83.2737L108.937 82.808ZM102.665 97.528L103.615 97.8393L103.615 97.8393L102.665 97.528ZM101.129 117.88L100.176 118.183L100.176 118.183L101.129 117.88ZM103.817 122.872L103.045 123.508L103.045 123.508L103.817 122.872ZM108.297 126.328L108.726 125.425L108.726 125.425L108.297 126.328ZM124.809 125.816L125.11 126.77L125.117 126.767L125.125 126.765L124.809 125.816ZM135.305 120.696L134.769 119.851L134.76 119.858L135.305 120.696ZM145.545 113.016L146.202 113.77L146.202 113.77L145.545 113.016ZM155.273 103.672L154.556 102.974L154.547 102.984L155.273 103.672ZM165.001 93.432L164.268 92.7515L164.267 92.7522L165.001 93.432ZM175.113 82.808L175.828 83.5064L175.837 83.4977L175.113 82.808ZM185.609 72.696L186.27 73.4464L186.279 73.4375L185.609 72.696ZM196.745 63.864L196.177 63.0405L196.177 63.0405L196.745 63.864ZM208.649 57.336L208.277 56.4075L208.27 56.4102L208.264 56.4129L208.649 57.336ZM214.153 55.544L214.405 56.5116L214.405 56.5116L214.153 55.544ZM220.425 54.136H221.425V52.9254L220.236 53.154L220.425 54.136ZM220.425 56.568L220.596 57.5532L221.425 57.4091V56.568H220.425ZM214.921 57.848L214.633 56.8902L214.626 56.8922L214.619 56.8944L214.921 57.848ZM209.673 59.768L209.294 58.8425L209.28 58.8481L209.266 58.8542L209.673 59.768ZM196.233 68.344L196.876 69.1097L196.877 69.1085L196.233 68.344ZM183.817 80.888L184.582 81.5309L184.582 81.5309L183.817 80.888ZM172.169 96.504L171.336 95.9493L171.336 95.9493L172.169 96.504ZM161.289 113.912L160.426 113.407L160.423 113.41L161.289 113.912ZM151.433 131.832L150.546 131.37L150.541 131.38L151.433 131.832ZM142.601 149.24L141.709 148.787L141.706 148.793L142.601 149.24ZM139.785 154.616L138.908 154.134L138.903 154.143L138.899 154.152L139.785 154.616ZM136.969 160.12L136.074 159.673L135.567 160.687L136.637 161.063L136.969 160.12ZM150.281 163.96L150.514 162.988L150.505 162.985L150.495 162.983L150.281 163.96ZM175.625 163.064L175.286 162.123L175.278 162.126L175.269 162.129L175.625 163.064ZM188.041 154.36L188.748 153.653L188.018 152.924L187.312 153.675L188.041 154.36ZM189.321 155.64L190.048 156.326L190.714 155.62L190.028 154.933L189.321 155.64ZM176.265 165.112L175.89 164.185L175.882 164.188L175.875 164.191L176.265 165.112ZM149.385 166.264L149.627 165.294L149.614 165.291L149.385 166.264ZM135.817 162.296L136.143 161.351L135.335 161.072L134.934 161.826L135.817 162.296ZM129.929 173.304L129.048 172.83L129.048 172.83L129.929 173.304ZM124.937 181.88L125.775 182.425L125.778 182.421L124.937 181.88ZM109.321 199.16L108.693 198.381L108.687 198.386L108.681 198.391L109.321 199.16ZM89.4805 211.704L89.0594 210.797L89.0552 210.799L89.4805 211.704ZM67.0805 219.256L66.8681 218.279L66.8658 218.279L67.0805 219.256ZM28.5525 220.152L28.3338 221.128L28.3373 221.129L28.5525 220.152ZM15.1125 214.648L15.6505 213.805L15.6441 213.801L15.6376 213.797L15.1125 214.648ZM5.3845 204.664L6.24508 204.155L6.24508 204.155L5.3845 204.664ZM6.7925 167.416L5.91013 166.945L5.90758 166.95L6.7925 167.416ZM20.2325 151.032L19.6136 150.247L19.6071 150.252L19.6006 150.257L20.2325 151.032ZM39.1765 140.792L38.8568 139.844L38.8534 139.846L39.1765 140.792ZM75.4005 138.488L75.2216 139.472L75.2303 139.473L75.239 139.475L75.4005 138.488ZM88.8405 141.56L89.1279 140.602L89.1279 140.602L88.8405 141.56ZM101.129 145.784L101.51 144.86L101.502 144.856L101.493 144.853L101.129 145.784ZM112.393 150.52L112.809 149.611L112.798 149.606L112.786 149.601L112.393 150.52ZM118.537 153.208L118.152 154.131L118.152 154.131L118.537 153.208ZM124.553 155.512L124.224 156.456L124.241 156.462L124.258 156.468L124.553 155.512ZM126.217 156.024L125.922 156.98L126.635 157.199L127.049 156.579L126.217 156.024ZM131.465 147.96L130.621 147.423L130.621 147.423L131.465 147.96ZM136.969 139.256L136.127 138.716L136.122 138.724L136.969 139.256ZM150.665 117.88L149.826 117.334L149.822 117.341L150.665 117.88ZM165.513 96.504L166.316 97.0992L164.779 95.8242L165.513 96.504ZM155.785 106.744L155.068 106.046L155.068 106.046L155.785 106.744ZM146.057 115.832L145.411 115.069L145.401 115.077L146.057 115.832ZM136.073 123.384L136.603 124.232L136.61 124.227L136.617 124.222L136.073 123.384ZM125.449 128.248L125.736 129.206L125.738 129.205L125.449 128.248ZM120.201 129.528L120.013 128.546L120.004 128.547L120.201 129.528ZM105.097 128.376L105.436 127.435L105.436 127.435L105.097 128.376ZM96.9045 123.64L96.2401 124.387L96.2469 124.393L96.2537 124.399L96.9045 123.64ZM91.4005 116.088L90.4866 116.494L90.491 116.504L91.4005 116.088ZM92.0405 89.976L92.9877 90.2968L92.9892 90.2922L92.0405 89.976ZM99.0805 74.488L99.9432 74.9937L99.9469 74.9873L99.0805 74.488ZM108.809 60.28L108.038 59.6427L108.031 59.6517L108.809 60.28ZM119.817 48.376L119.13 47.6484L119.126 47.6523L119.817 48.376ZM129.417 40.184L130.029 40.9744L130.035 40.9697L130.041 40.9649L129.417 40.184ZM140.297 32.504L139.782 31.6465L139.775 31.6507L139.768 31.6549L140.297 32.504ZM145.417 29.56L145.887 30.4424L145.909 30.4305L145.931 30.4175L145.417 29.56ZM149.769 27.128L150.234 28.0129L151.807 27.185L150.283 26.2705L149.769 27.128ZM144.008 23.672L143.489 24.5262L143.494 24.5295L144.008 23.672ZM131.977 16.632L131.478 17.4991L131.486 17.5036L131.977 16.632ZM119.561 10.488L119.948 9.56601L119.948 9.56601L119.561 10.488ZM106.377 6.13599L106.615 5.16478L106.615 5.16478L106.377 6.13599ZM73.0965 8.312L73.4614 9.24312L73.4722 9.23874L73.0965 8.312ZM56.0725 18.808L55.4042 18.064L55.3979 18.0698L56.0725 18.808ZM44.0405 34.936L43.1436 34.4937L43.1411 34.4988L44.0405 34.936ZM48.1365 80.248L47.3907 80.9142L47.3957 80.9197L48.1365 80.248ZM72.7125 92.024L73.7075 92.1235L73.8035 91.1642L72.8483 91.0333L72.7125 92.024ZM72.5845 93.304V94.304H73.4895L73.5795 93.4035L72.5845 93.304ZM56.2005 90.488L55.8458 91.423L55.8511 91.425L56.2005 90.488ZM43.1445 82.68L42.4634 83.4122L42.4722 83.4204L42.4812 83.4283L43.1445 82.68ZM34.4405 70.52L33.524 70.9199L33.527 70.9269L33.5301 70.9338L34.4405 70.52ZM36.1045 32.888L35.2055 32.45L35.201 32.4594L36.1045 32.888ZM67.0805 5.112L67.4213 6.05219L67.4316 6.04833L67.0805 5.112ZM104.457 3.19199L104.214 4.16213L104.223 4.16448L104.233 4.16665L104.457 3.19199ZM119.433 8.056L119.039 8.97514L119.039 8.97515L119.433 8.056ZM133.385 14.968L132.892 15.8383L132.899 15.8422L133.385 14.968ZM146.825 22.648L147.351 21.7977L147.341 21.7918L147.332 21.7861L146.825 22.648ZM152.201 25.976L151.674 26.8263L152.146 27.1185L152.644 26.8724L152.201 25.976ZM177.033 16.504L177.304 17.4666L177.31 17.4648L177.033 16.504ZM211.337 13.048L211.201 14.0388L211.201 14.0388L211.337 13.048ZM216.841 14.328L216.524 15.2767L216.545 15.2835L216.566 15.2895L216.841 14.328ZM221.833 16.632L221.278 17.464L221.294 17.475L221.311 17.4853L221.833 16.632ZM115.465 171.256L116.251 171.874L116.26 171.862L116.269 171.85L115.465 171.256ZM119.817 165.112L119.017 164.512L119.003 164.531L118.99 164.55L119.817 165.112ZM124.681 158.072L125.521 158.614L126.055 157.786L125.235 157.24L124.681 158.072ZM123.401 157.688L123.848 156.794L123.803 156.771L123.756 156.753L123.401 157.688ZM110.089 152.824L109.751 153.765L109.757 153.767L110.089 152.824ZM96.1365 148.472L96.3952 147.506L96.3952 147.506L96.1365 148.472ZM81.2885 145.272L81.4529 144.286L81.4393 144.283L81.2885 145.272ZM52.1045 145.144L51.9631 144.154L51.953 144.155L51.943 144.157L52.1045 145.144ZM38.2805 148.6L37.9589 147.653L37.951 147.656L37.943 147.659L38.2805 148.6ZM25.2245 154.616L24.7283 153.748L24.7206 153.752L25.2245 154.616ZM14.3445 163.192L13.619 162.504L13.619 162.504L14.3445 163.192ZM6.7925 174.584L5.87718 174.181L5.87237 174.192L5.86782 174.203L6.7925 174.584ZM6.7925 201.848L5.89393 202.287L5.89393 202.287L6.7925 201.848ZM14.0885 210.936L14.7054 210.149L14.7024 210.147L14.0885 210.936ZM25.0965 216.44L25.3839 215.482L25.3712 215.478L25.0965 216.44ZM61.5765 214.392L61.9191 215.331L61.9191 215.331L61.5765 214.392ZM82.0565 203.768L81.4942 202.941L81.4867 202.946L82.0565 203.768ZM99.9765 188.664L99.2694 187.957L99.264 187.962L99.2588 187.968L99.9765 188.664ZM223.625 21.624L224.464 21.0807L224.457 21.0693L223.625 21.624ZM220.425 18.552L219.87 19.384L219.89 19.3972L219.91 19.4095L220.425 18.552ZM216.201 16.632L215.884 17.5807L215.908 17.5887L215.933 17.5955L216.201 16.632ZM211.337 15.608L211.181 16.5958L211.209 16.6002L211.237 16.603L211.337 15.608ZM180.745 19.448L181.073 20.3925L181.082 20.3893L180.745 19.448ZM158.729 29.688L158.214 28.8305L156.735 29.7178L158.24 30.5605L158.729 29.688ZM178.313 38.52L177.985 39.465L177.993 39.4675L178 39.4699L178.313 38.52ZM205.833 41.208L205.644 40.226L205.644 40.226L205.833 41.208ZM212.361 39.288L212.001 38.3546L211.989 38.3595L212.361 39.288ZM218.505 36.216L219.041 37.0597L219.055 37.0512L219.068 37.0422L218.505 36.216ZM223.241 31.864L224.025 32.4836L224.089 32.4031L224.135 32.3112L223.241 31.864ZM224.393 29.176L225.326 29.535L225.33 29.5237L225.334 29.5123L224.393 29.176ZM225.673 20.216L224.853 20.7895C225.927 22.3238 226.465 24.0426 226.465 25.976H227.465H228.465C228.465 23.6428 227.807 21.5215 226.492 19.6425L225.673 20.216ZM227.465 25.976H226.465C226.465 28.5056 225.757 30.7315 224.349 32.6877L225.161 33.272L225.972 33.8563C227.636 31.5459 228.465 28.9077 228.465 25.976H227.465ZM225.161 33.272L224.323 32.7257C223.121 34.5693 221.555 36.1379 219.614 37.4319L220.169 38.264L220.723 39.096C222.878 37.6595 224.64 35.9001 225.998 33.8183L225.161 33.272ZM220.169 38.264L219.597 37.4431C217.698 38.7647 215.63 39.8819 213.391 40.7939L213.769 41.72L214.146 42.6461C216.515 41.6807 218.714 40.494 220.74 39.0849L220.169 38.264ZM213.769 41.72L213.421 40.7822C211.176 41.6138 208.846 42.2381 206.431 42.6545L206.601 43.64L206.77 44.6255C209.304 44.1886 211.753 43.5329 214.116 42.6577L213.769 41.72ZM206.601 43.64L206.431 42.6545C204.005 43.0728 201.715 43.28 199.561 43.28V44.28V45.28C201.843 45.28 204.247 45.0606 206.77 44.6255L206.601 43.64ZM199.561 44.28V43.28C191.994 43.28 184.684 42.0194 177.625 39.4983L177.289 40.44L176.952 41.3817C184.229 43.9806 191.767 45.28 199.561 45.28V44.28ZM177.289 40.44L177.635 39.5018C170.512 36.8733 163.602 33.736 156.903 30.0897L156.425 30.968L155.946 31.8463C162.73 35.5386 169.729 38.716 176.942 41.3781L177.289 40.44ZM156.425 30.968L155.888 30.1243C154.936 30.7299 153.901 31.4199 152.783 32.1938L153.353 33.016L153.922 33.8382C155.023 33.0761 156.036 32.4008 156.961 31.8117L156.425 30.968ZM153.353 33.016L152.783 32.1938C151.657 32.9733 150.364 33.9218 148.905 35.0376L149.513 35.832L150.12 36.6263C151.562 35.5235 152.829 34.5947 153.922 33.8382L153.353 33.016ZM149.513 35.832L148.936 35.015C144.545 38.1146 140.453 41.4738 136.662 45.0926L137.353 45.816L138.043 46.5394C141.761 42.9902 145.776 39.6933 150.089 36.649L149.513 35.832ZM137.353 45.816L136.671 45.0844C132.891 48.6068 129.367 52.2595 126.1 56.0424L126.857 56.696L127.613 57.3496C130.832 53.6232 134.305 50.0225 138.034 46.5476L137.353 45.816ZM126.857 56.696L126.097 56.0452C123.001 59.6581 119.866 63.7382 116.693 68.2836L117.513 68.856L118.332 69.4284C121.474 64.9285 124.568 60.9019 127.616 57.3468L126.857 56.696ZM117.513 68.856L116.698 68.2762C113.514 72.7503 110.632 77.4391 108.052 82.3423L108.937 82.808L109.821 83.2737C112.361 78.4489 115.196 73.8364 118.327 69.4358L117.513 68.856ZM108.937 82.808L108.052 82.3423C105.467 87.2531 103.354 92.2113 101.714 97.2167L102.665 97.528L103.615 97.8393C105.218 92.946 107.286 88.0909 109.821 83.2737L108.937 82.808ZM102.665 97.528L101.714 97.2167C100.064 102.254 99.2325 107.137 99.2325 111.864H100.233H101.233C101.233 107.375 102.022 102.701 103.615 97.8393L102.665 97.528ZM100.233 111.864H99.2325C99.2325 114.092 99.5446 116.2 100.176 118.183L101.129 117.88L102.081 117.577C101.518 115.805 101.233 113.903 101.233 111.864H100.233ZM101.129 117.88L100.176 118.183C100.81 120.176 101.765 121.954 103.045 123.508L103.817 122.872L104.588 122.236C103.479 120.889 102.642 119.339 102.081 117.577L101.129 117.88ZM103.817 122.872L103.045 123.508C104.338 125.078 105.95 126.318 107.867 127.231L108.297 126.328L108.726 125.425C107.059 124.631 105.685 123.568 104.588 122.236L103.817 122.872ZM108.297 126.328L107.867 127.231C109.822 128.162 112.109 128.608 114.697 128.608V127.608V126.608C112.335 126.608 110.355 126.201 108.726 125.425L108.297 126.328ZM114.697 127.608V128.608C116.47 128.608 118.243 128.431 120.013 128.077L119.817 127.096L119.62 126.115C117.977 126.444 116.336 126.608 114.697 126.608V127.608ZM119.817 127.096L120.013 128.077C121.754 127.728 123.453 127.293 125.11 126.77L124.809 125.816L124.507 124.862C122.921 125.363 121.292 125.781 119.62 126.115L119.817 127.096ZM124.809 125.816L125.125 126.765C128.795 125.541 132.37 123.796 135.849 121.534L135.305 120.696L134.76 119.858C131.412 122.033 127.99 123.702 124.492 124.867L124.809 125.816ZM135.305 120.696L135.84 121.541C139.384 119.293 142.838 116.702 146.202 113.77L145.545 113.016L144.887 112.262C141.595 115.132 138.222 117.662 134.769 119.851L135.305 120.696ZM145.545 113.016L146.202 113.77C149.554 110.847 152.82 107.71 155.998 104.36L155.273 103.672L154.547 102.984C151.411 106.29 148.191 109.382 144.887 112.262L145.545 113.016ZM155.273 103.672L155.989 104.37C159.237 101.036 162.486 97.6164 165.734 94.1118L165.001 93.432L164.267 92.7522C161.03 96.245 157.793 99.6522 154.556 102.974L155.273 103.672ZM165.001 93.432L165.733 94.1125C169.056 90.5345 172.421 86.9991 175.828 83.5063L175.113 82.808L174.397 82.1097C170.978 85.6142 167.601 89.1615 164.268 92.7515L165.001 93.432ZM175.113 82.808L175.837 83.4977C179.231 79.934 182.708 76.5837 186.27 73.4464L185.609 72.696L184.947 71.9456C181.341 75.123 177.821 78.514 174.388 82.1183L175.113 82.808ZM185.609 72.696L186.279 73.4375C189.832 70.2234 193.509 67.3069 197.312 64.6875L196.745 63.864L196.177 63.0405C192.3 65.7117 188.553 68.6833 184.938 71.9545L185.609 72.696ZM196.745 63.864L197.312 64.6875C201.097 62.0796 205.004 59.9377 209.033 58.2591L208.649 57.336L208.264 56.4129C204.101 58.1477 200.072 60.3577 196.177 63.0405L196.745 63.864ZM208.649 57.336L209.02 58.2645C210.684 57.5988 212.479 57.0141 214.405 56.5116L214.153 55.544L213.9 54.5764C211.901 55.0979 210.026 55.7078 208.277 56.4075L208.649 57.336ZM214.153 55.544L214.405 56.5116C216.344 56.0057 218.414 55.541 220.613 55.118L220.425 54.136L220.236 53.154C217.998 53.5843 215.886 54.0583 213.9 54.5764L214.153 55.544ZM220.425 54.136H219.425V56.568H220.425H221.425V54.136H220.425ZM220.425 56.568L220.253 55.5828C218.256 55.9301 216.382 56.3655 214.633 56.8902L214.921 57.848L215.208 58.8058C216.872 58.3065 218.668 57.8885 220.596 57.5532L220.425 56.568ZM214.921 57.848L214.619 56.8944C212.967 57.4161 211.192 58.066 209.294 58.8425L209.673 59.768L210.051 60.6935C211.908 59.934 213.631 59.3039 215.222 58.8016L214.921 57.848ZM209.673 59.768L209.266 58.8542C204.562 60.945 200.003 63.8571 195.588 67.5795L196.233 68.344L196.877 69.1085C201.166 65.4922 205.567 62.687 210.079 60.6818L209.673 59.768ZM196.233 68.344L195.589 67.5783C191.273 71.2037 187.094 75.4272 183.051 80.2451L183.817 80.888L184.582 81.5309C188.56 76.7914 192.658 72.6523 196.876 69.1097L196.233 68.344ZM183.817 80.888L183.051 80.2451C179.014 85.0542 175.11 90.2893 171.336 95.9493L172.169 96.504L173.001 97.0587C176.737 91.4547 180.597 86.2791 184.582 81.5309L183.817 80.888ZM172.169 96.504L171.336 95.9493C167.571 101.598 163.934 107.417 160.426 113.407L161.289 113.912L162.151 114.417C165.64 108.46 169.257 102.674 173.001 97.0587L172.169 96.504ZM161.289 113.912L160.423 113.41C157.002 119.311 153.71 125.298 150.546 131.37L151.433 131.832L152.319 132.294C155.47 126.249 158.748 120.289 162.154 114.414L161.289 113.912ZM151.433 131.832L150.541 131.38C147.469 137.438 144.525 143.241 141.709 148.787L142.601 149.24L143.492 149.693C146.308 144.146 149.252 138.343 152.324 132.284L151.433 131.832ZM142.601 149.24L141.706 148.793C140.773 150.659 139.84 152.44 138.908 154.134L139.785 154.616L140.661 155.098C141.606 153.379 142.551 151.575 143.495 149.687L142.601 149.24ZM139.785 154.616L138.899 154.152C137.957 155.95 137.015 157.79 136.074 159.673L136.969 160.12L137.863 160.567C138.799 158.695 139.735 156.866 140.67 155.08L139.785 154.616ZM136.969 160.12L136.637 161.063C141.278 162.697 145.755 163.988 150.066 164.937L150.281 163.96L150.495 162.983C146.273 162.054 141.875 160.786 137.3 159.177L136.969 160.12ZM150.281 163.96L150.047 164.932C154.38 165.972 158.512 166.496 162.441 166.496V165.496V164.496C158.689 164.496 154.715 163.996 150.514 162.988L150.281 163.96ZM162.441 165.496V166.496C167.086 166.496 171.601 165.663 175.98 163.999L175.625 163.064L175.269 162.129C171.115 163.708 166.841 164.496 162.441 164.496V165.496ZM175.625 163.064L175.963 164.005C180.415 162.402 184.681 159.394 188.769 155.045L188.041 154.36L187.312 153.675C183.379 157.859 179.367 160.654 175.286 162.123L175.625 163.064ZM188.041 154.36L187.333 155.067L188.613 156.347L189.321 155.64L190.028 154.933L188.748 153.653L188.041 154.36ZM189.321 155.64L188.593 154.954C184.397 159.402 180.16 162.46 175.89 164.185L176.265 165.112L176.639 166.039C181.244 164.18 185.711 160.924 190.048 156.326L189.321 155.64ZM176.265 165.112L175.875 164.191C171.56 166.017 167.084 166.928 162.441 166.928V167.928V168.928C167.354 168.928 172.095 167.962 176.654 166.033L176.265 165.112ZM162.441 167.928V166.928C158.261 166.928 153.991 166.385 149.627 165.294L149.385 166.264L149.142 167.234C153.653 168.362 158.086 168.928 162.441 168.928V167.928ZM149.385 166.264L149.614 165.291C145.298 164.275 140.808 162.962 136.143 161.351L135.817 162.296L135.49 163.241C140.212 164.872 144.767 166.205 149.155 167.237L149.385 166.264ZM135.817 162.296L134.934 161.826C132.801 165.836 130.839 169.504 129.048 172.83L129.929 173.304L130.809 173.778C132.602 170.448 134.565 166.777 136.699 162.766L135.817 162.296ZM129.929 173.304L129.048 172.83C127.265 176.142 125.614 178.977 124.095 181.339L124.937 181.88L125.778 182.421C127.331 180.004 129.008 177.122 130.809 173.778L129.929 173.304ZM124.937 181.88L124.098 181.335C119.889 187.817 114.755 193.498 108.693 198.381L109.321 199.16L109.948 199.939C116.174 194.924 121.45 189.085 125.775 182.425L124.937 181.88ZM109.321 199.16L108.681 198.391C102.689 203.37 96.1493 207.505 89.0594 210.797L89.4805 211.704L89.9016 212.611C97.1477 209.247 103.834 205.019 109.96 199.929L109.321 199.16ZM89.4805 211.704L89.0552 210.799C82.0424 214.094 74.6473 216.588 66.8681 218.279L67.0805 219.256L67.2929 220.233C75.2151 218.511 82.7533 215.97 89.9058 212.609L89.4805 211.704ZM67.0805 219.256L66.8658 218.279C59.1693 219.971 51.4759 220.816 43.7845 220.816V221.816V222.816C51.6237 222.816 59.461 221.954 67.2952 220.233L67.0805 219.256ZM43.7845 221.816V220.816C38.7374 220.816 33.7322 220.269 28.7677 219.175L28.5525 220.152L28.3373 221.129C33.4422 222.253 38.5916 222.816 43.7845 222.816V221.816ZM28.5525 220.152L28.7712 219.176C23.9277 218.091 19.557 216.299 15.6505 213.805L15.1125 214.648L14.5745 215.491C18.6893 218.117 23.2786 219.995 28.3338 221.128L28.5525 220.152ZM15.1125 214.648L15.6376 213.797C11.7692 211.41 8.6399 208.201 6.24508 204.155L5.3845 204.664L4.52392 205.173C7.07844 209.49 10.4345 212.937 14.5874 215.499L15.1125 214.648ZM5.3845 204.664L6.24508 204.155C3.88287 200.163 2.6725 195.188 2.6725 189.176H1.6725H0.6725C0.6725 195.452 1.9368 200.802 4.52392 205.173L5.3845 204.664ZM1.6725 189.176H2.6725C2.6725 181.301 4.34664 174.21 7.67742 167.882L6.7925 167.416L5.90758 166.95C2.41169 173.592 0.6725 181.008 0.6725 189.176H1.6725ZM6.7925 167.416L7.67485 167.887C11.0266 161.602 15.422 156.245 20.8644 151.807L20.2325 151.032L19.6006 150.257C13.9496 154.865 9.38506 160.43 5.91015 166.945L6.7925 167.416ZM20.2325 151.032L20.8514 151.817C26.3918 147.452 32.6059 144.092 39.4996 141.738L39.1765 140.792L38.8534 139.846C31.7525 142.27 25.3372 145.737 19.6136 150.247L20.2325 151.032ZM39.1765 140.792L39.4962 141.74C46.479 139.384 53.5392 138.208 60.6805 138.208V137.208V136.208C53.3152 136.208 46.0393 137.421 38.8569 139.844L39.1765 140.792ZM60.6805 137.208V138.208C65.7449 138.208 70.5914 138.63 75.2216 139.472L75.4005 138.488L75.5794 137.504C70.8229 136.639 65.8562 136.208 60.6805 136.208V137.208ZM75.4005 138.488L75.239 139.475C79.8927 140.236 84.3304 141.251 88.5532 142.518L88.8405 141.56L89.1279 140.602C84.8172 139.309 80.295 138.276 75.562 137.501L75.4005 138.488ZM88.8405 141.56L88.5532 142.518C92.7952 143.79 96.8655 145.19 100.764 146.715L101.129 145.784L101.493 144.853C97.5409 143.306 93.4191 141.89 89.1279 140.602L88.8405 141.56ZM101.129 145.784L100.747 146.708C104.668 148.328 108.419 149.905 111.999 151.439L112.393 150.52L112.786 149.601C109.198 148.063 105.439 146.483 101.51 144.86L101.129 145.784ZM112.393 150.52L111.976 151.429C114.034 152.373 116.093 153.273 118.152 154.131L118.537 153.208L118.921 152.285C116.884 151.436 114.847 150.545 112.809 149.611L112.393 150.52ZM118.537 153.208L118.152 154.131C120.217 154.992 122.241 155.767 124.224 156.456L124.553 155.512L124.881 154.568C122.938 153.892 120.952 153.131 118.921 152.285L118.537 153.208ZM124.553 155.512L124.258 156.468L125.922 156.98L126.217 156.024L126.511 155.068L124.847 154.556L124.553 155.512ZM126.217 156.024L127.049 156.579C128.759 154.012 130.513 151.318 132.308 148.497L131.465 147.96L130.621 147.423C128.832 150.234 127.087 152.916 125.384 155.469L126.217 156.024ZM131.465 147.96L132.308 148.497C134.101 145.679 135.937 142.776 137.815 139.788L136.969 139.256L136.122 138.724C134.245 141.709 132.412 144.609 130.621 147.423L131.465 147.96ZM136.969 139.256L137.81 139.796C142.248 132.884 146.813 125.758 151.507 118.419L150.665 117.88L149.822 117.341C145.129 124.679 140.564 131.804 136.127 138.716L136.969 139.256ZM150.665 117.88L151.503 118.426C156.27 111.104 161.208 103.995 166.316 97.0992L165.513 96.504L164.709 95.9088C159.577 102.837 154.616 109.979 149.827 117.334L150.665 117.88ZM165.513 96.504L164.779 95.8242C161.542 99.317 158.305 102.724 155.068 106.046L155.785 106.744L156.501 107.442C159.749 104.108 162.998 100.688 166.246 97.1838L165.513 96.504ZM155.785 106.744L155.068 106.046C151.932 109.267 148.713 112.274 145.411 115.069L146.057 115.832L146.702 116.595C150.056 113.758 153.322 110.706 156.501 107.442L155.785 106.744ZM146.057 115.832L145.401 115.077C142.191 117.864 138.9 120.353 135.528 122.546L136.073 123.384L136.617 124.222C140.072 121.977 143.436 119.432 146.712 116.587L146.057 115.832ZM136.073 123.384L135.543 122.536C132.2 124.625 128.74 126.208 125.159 127.291L125.449 128.248L125.738 129.205C129.496 128.069 133.118 126.41 136.603 124.232L136.073 123.384ZM125.449 128.248L125.161 127.29C123.488 127.792 121.772 128.211 120.013 128.546L120.201 129.528L120.388 130.51C122.213 130.163 123.995 129.728 125.736 129.206L125.449 128.248ZM120.201 129.528L120.004 128.547C118.367 128.875 116.641 129.04 114.825 129.04V130.04V131.04C116.763 131.04 118.621 130.864 120.397 130.509L120.201 129.528ZM114.825 130.04V129.04C111.522 129.04 108.394 128.504 105.436 127.435L105.097 128.376L104.757 129.317C107.943 130.467 111.301 131.04 114.825 131.04V130.04ZM105.097 128.376L105.436 127.435C102.474 126.366 99.8493 124.847 97.5553 122.881L96.9045 123.64L96.2537 124.399C98.7384 126.529 101.575 128.168 104.757 129.317L105.097 128.376ZM96.9045 123.64L97.5689 122.893C95.3754 120.943 93.6214 118.541 92.31 115.672L91.4005 116.088L90.491 116.504C91.9103 119.608 93.8256 122.241 96.2401 124.387L96.9045 123.64ZM91.4005 116.088L92.3143 115.682C91.0133 112.755 90.3525 109.44 90.3525 105.72H89.3525H88.3525C88.3525 109.68 89.057 113.277 90.4867 116.494L91.4005 116.088ZM89.3525 105.72H90.3525C90.3525 100.631 91.2281 95.4917 92.9876 90.2968L92.0405 89.976L91.0934 89.6552C89.2689 95.0416 88.3525 100.398 88.3525 105.72H89.3525ZM92.0405 89.976L92.9892 90.2922C94.7589 84.983 97.0766 79.8838 99.9432 74.9937L99.0805 74.488L98.2178 73.9823C95.2817 78.9909 92.9061 84.217 91.0918 89.6598L92.0405 89.976ZM99.0805 74.488L99.9469 74.9873C102.823 69.997 106.036 65.3043 109.586 60.9083L108.809 60.28L108.031 59.6517C104.413 64.1304 101.141 68.9096 98.2141 73.9887L99.0805 74.488ZM108.809 60.28L109.579 60.9173C113.227 56.5063 116.869 52.5678 120.507 49.0997L119.817 48.376L119.126 47.6523C115.425 51.1815 111.729 55.179 108.038 59.6427L108.809 60.28ZM119.817 48.376L120.503 49.1036C123.465 46.3108 126.64 43.601 130.029 40.9744L129.417 40.184L128.804 39.3936C125.366 42.0576 122.142 44.8092 119.13 47.6484L119.817 48.376ZM129.417 40.184L130.041 40.9649C133.423 38.2596 137.017 35.7223 140.825 33.3531L140.297 32.504L139.768 31.6549C135.896 34.0644 132.237 36.647 128.792 39.4031L129.417 40.184ZM140.297 32.504L140.811 33.3615C142.939 32.085 144.629 31.1135 145.887 30.4424L145.417 29.56L144.946 28.6776C143.644 29.3718 141.921 30.363 139.782 31.6465L140.297 32.504ZM145.417 29.56L145.931 30.4175C147.192 29.6609 148.626 28.8594 150.234 28.0129L149.769 27.128L149.303 26.2431C147.668 27.1032 146.201 27.923 144.902 28.7025L145.417 29.56ZM149.769 27.128L150.283 26.2705L144.523 22.8145L144.008 23.672L143.494 24.5295L149.254 27.9855L149.769 27.128ZM144.008 23.672L144.528 22.8178C140.593 20.4224 136.573 18.0699 132.467 15.7604L131.977 16.632L131.486 17.5036C135.572 19.8021 139.573 22.143 143.489 24.5262L144.008 23.672ZM131.977 16.632L132.475 15.7649C128.428 13.4403 124.252 11.374 119.948 9.56601L119.561 10.488L119.173 11.41C123.402 13.186 127.504 15.2157 131.478 17.4991L131.977 16.632ZM119.561 10.488L119.948 9.56601C115.632 7.75359 111.188 6.28651 106.615 5.16478L106.377 6.13599L106.138 7.1072C110.61 8.20413 114.955 9.63839 119.173 11.41L119.561 10.488ZM106.377 6.13599L106.615 5.16478C102.012 4.03583 97.2813 3.472 92.4245 3.472V4.472V5.472C97.125 5.472 101.696 6.01749 106.138 7.1072L106.377 6.13599ZM92.4245 4.472V3.472C85.7203 3.472 79.1503 4.7787 72.7208 7.38526L73.0965 8.312L73.4722 9.23874C79.672 6.7253 85.9874 5.472 92.4245 5.472V4.472ZM73.0965 8.312L72.7316 7.38094C66.3057 9.89921 60.5282 13.4612 55.4042 18.0641L56.0725 18.808L56.7408 19.5519C61.6861 15.1095 67.258 11.6741 73.4614 9.24305L73.0965 8.312ZM56.0725 18.808L55.3979 18.0698C50.3534 22.6794 46.2687 28.1568 43.1436 34.4937L44.0405 34.936L44.9374 35.3783C47.9563 29.2565 51.8929 23.9819 56.7471 19.5462L56.0725 18.808ZM44.0405 34.936L43.1411 34.4988C40.0834 40.789 38.5605 47.6813 38.5605 55.16H39.5605H40.5605C40.5605 47.9613 42.0243 41.371 44.9399 35.3732L44.0405 34.936ZM39.5605 55.16H38.5605C38.5605 65.6786 41.4778 74.2952 47.3907 80.9142L48.1365 80.248L48.8823 79.5818C43.3606 73.4008 40.5605 65.2921 40.5605 55.16H39.5605ZM48.1365 80.248L47.3957 80.9197C53.3909 87.5321 61.8193 91.5399 72.5767 93.0147L72.7125 92.024L72.8483 91.0333C62.443 89.6067 54.4874 85.7639 48.8773 79.5763L48.1365 80.248ZM72.7125 92.024L71.7175 91.9245L71.5895 93.2045L72.5845 93.304L73.5795 93.4035L73.7075 92.1235L72.7125 92.024ZM72.5845 93.304V92.304C66.8044 92.304 61.4626 91.3829 56.5499 89.551L56.2005 90.488L55.8511 91.425C61.0078 93.3478 66.5886 94.304 72.5845 94.304V93.304ZM56.2005 90.488L56.5552 89.553C51.7129 87.7163 47.4668 85.1749 43.8078 81.9316L43.1445 82.68L42.4812 83.4283C46.3315 86.8411 50.7895 89.5051 55.8459 91.423L56.2005 90.488ZM43.1445 82.68L43.8256 81.9478C40.2558 78.627 37.4312 74.6828 35.3509 70.1062L34.4405 70.52L33.5301 70.9338C35.7165 75.7438 38.6946 79.9063 42.4634 83.4122L43.1445 82.68ZM34.4405 70.52L35.357 70.1201C33.3685 65.5631 32.3685 60.5806 32.3685 55.16H31.3685H30.3685C30.3685 60.8327 31.4165 66.0903 33.524 70.9199L34.4405 70.52ZM31.3685 55.16H32.3685C32.3685 47.0995 33.921 39.8243 37.008 33.3166L36.1045 32.888L35.201 32.4594C31.9733 39.2637 30.3685 46.8365 30.3685 55.16H31.3685ZM36.1045 32.888L37.0035 33.326C40.1915 26.7821 44.38 21.2144 49.5681 16.6121L48.9045 15.864L48.2409 15.1159C42.8476 19.9003 38.5028 25.6818 35.2055 32.45L36.1045 32.888ZM48.9045 15.864L49.5681 16.6121C54.7617 12.0048 60.7102 8.48492 67.4213 6.05214L67.0805 5.112L66.7397 4.17186C59.7975 6.6884 53.6286 10.3365 48.2409 15.1159L48.9045 15.864ZM67.0805 5.112L67.4316 6.04833C74.1453 3.53071 81.1089 2.27199 88.3285 2.27199V1.27199V0.271988C80.8707 0.271988 73.6691 1.57328 66.7294 4.17567L67.0805 5.112ZM88.3285 1.27199V2.27199C93.8842 2.27199 99.1784 2.90324 104.214 4.16213L104.457 3.19199L104.699 2.22184C99.4946 0.920733 94.0368 0.271988 88.3285 0.271988V1.27199ZM104.457 3.19199L104.233 4.16665C109.381 5.3483 114.316 6.95133 119.039 8.97514L119.433 8.056L119.826 7.13686C114.991 5.06466 109.942 3.42501 104.68 2.21733L104.457 3.19199ZM119.433 8.056L119.039 8.97515C123.784 11.0087 128.401 13.2964 132.892 15.8383L133.385 14.968L133.877 14.0977C129.322 11.5196 124.639 9.19931 119.826 7.13685L119.433 8.056ZM133.385 14.968L132.899 15.8422C137.5 18.3983 141.973 20.9543 146.317 23.5099L146.825 22.648L147.332 21.7861C142.972 19.2217 138.485 16.6576 133.87 14.0938L133.385 14.968ZM146.825 22.648L146.298 23.4983L151.674 26.8263L152.201 25.976L152.727 25.1257L147.351 21.7977L146.825 22.648ZM152.201 25.976L152.644 26.8724C160.351 23.0611 168.57 19.9254 177.304 17.4666L177.033 16.504L176.761 15.5414C167.916 18.0319 159.581 21.2109 151.757 25.0796L152.201 25.976ZM177.033 16.504L177.31 17.4648C186.084 14.9337 195.59 13.664 205.833 13.664V12.664V11.664C195.424 11.664 185.73 12.9543 176.755 15.5432L177.033 16.504ZM205.833 12.664V13.664C207.577 13.664 209.366 13.7886 211.201 14.0388L211.337 13.048L211.472 12.0572C209.552 11.7954 207.672 11.664 205.833 11.664V12.664ZM211.337 13.048L211.201 14.0388C213.017 14.2865 214.791 14.699 216.524 15.2767L216.841 14.328L217.157 13.3793C215.306 12.7623 213.41 12.3215 211.472 12.0572L211.337 13.048ZM216.841 14.328L216.566 15.2895C218.259 15.7734 219.829 16.498 221.278 17.464L221.833 16.632L222.387 15.7999C220.764 14.718 219.006 13.9066 217.115 13.3665L216.841 14.328ZM221.833 16.632L221.311 17.4853C222.732 18.3539 223.911 19.455 224.856 20.7927L225.673 20.216L226.489 19.6393C225.386 18.0757 224.005 16.7875 222.354 15.7787L221.833 16.632ZM115.465 171.256L116.269 171.85C117.728 169.877 119.186 167.818 120.643 165.674L119.817 165.112L118.99 164.55C117.546 166.673 116.103 168.71 114.66 170.662L115.465 171.256ZM119.817 165.112L120.617 165.712C122.169 163.642 123.804 161.275 125.521 158.614L124.681 158.072L123.84 157.53C122.144 160.16 120.536 162.486 119.017 164.512L119.817 165.112ZM124.681 158.072L125.235 157.24C124.849 156.982 124.403 156.816 123.913 156.816V157.816V158.816C123.934 158.816 124 158.82 124.126 158.904L124.681 158.072ZM123.913 157.816V156.816C123.911 156.816 123.908 156.816 123.899 156.814C123.89 156.812 123.873 156.806 123.848 156.794L123.401 157.688L122.953 158.582C123.246 158.729 123.569 158.816 123.913 158.816V157.816ZM123.401 157.688L123.756 156.753C119.481 155.129 115.036 153.505 110.42 151.881L110.089 152.824L109.757 153.767C114.357 155.386 118.787 157.005 123.045 158.623L123.401 157.688ZM110.089 152.824L110.426 151.883C105.877 150.252 101.2 148.793 96.3952 147.506L96.1365 148.472L95.8778 149.438C100.631 150.711 105.255 152.154 109.751 153.765L110.089 152.824ZM96.1365 148.472L96.3952 147.506C91.584 146.217 86.6031 145.144 81.4529 144.286L81.2885 145.272L81.1241 146.258C86.2139 147.107 91.1317 148.167 95.8778 149.438L96.1365 148.472ZM81.2885 145.272L81.4393 144.283C76.3521 143.507 71.0962 143.12 65.6725 143.12V144.12V145.12C71.0008 145.12 76.1556 145.501 81.1377 146.261L81.2885 145.272ZM65.6725 144.12V143.12C61.3528 143.12 56.7826 143.466 51.9631 144.154L52.1045 145.144L52.2459 146.134C56.9837 145.457 61.4588 145.12 65.6725 145.12V144.12ZM52.1045 145.144L51.943 144.157C47.1951 144.934 42.5335 146.099 37.9589 147.653L38.2805 148.6L38.6021 149.547C43.0728 148.029 47.6273 146.89 52.266 146.131L52.1045 145.144ZM38.2805 148.6L37.943 147.659C33.3653 149.3 28.9602 151.33 24.7284 153.748L25.2245 154.616L25.7206 155.484C29.8514 153.124 34.1504 151.143 38.618 149.541L38.2805 148.6ZM25.2245 154.616L24.7206 153.752C20.5456 156.188 16.8437 159.105 13.619 162.504L14.3445 163.192L15.07 163.88C18.1599 160.623 21.7114 157.823 25.7284 155.48L25.2245 154.616ZM14.3445 163.192L13.619 162.504C10.3812 165.917 7.80013 169.811 5.87718 174.181L6.7925 174.584L7.70782 174.987C9.53954 170.824 11.9932 167.123 15.07 163.88L14.3445 163.192ZM6.7925 174.584L5.86782 174.203C4.02028 178.69 3.1045 183.643 3.1045 189.048H4.1045H5.1045C5.1045 183.872 5.98072 179.182 7.71718 174.965L6.7925 174.584ZM4.1045 189.048H3.1045C3.1045 194.035 4.02361 198.457 5.89393 202.287L6.7925 201.848L7.69107 201.409C5.97739 197.9 5.1045 193.789 5.1045 189.048H4.1045ZM6.7925 201.848L5.89393 202.287C7.74946 206.086 10.2763 209.238 13.4746 211.725L14.0885 210.936L14.7024 210.147C11.7567 207.856 9.41954 204.948 7.69107 201.409L6.7925 201.848ZM14.0885 210.936L13.4716 211.723C16.7389 214.284 20.5267 216.174 24.8218 217.402L25.0965 216.44L25.3712 215.478C21.3036 214.316 17.7527 212.537 14.7054 210.149L14.0885 210.936ZM25.0965 216.44L24.8092 217.398C29.1772 218.708 33.8401 219.36 38.7925 219.36V218.36V217.36C34.0169 217.36 29.5492 216.732 25.3838 215.482L25.0965 216.44ZM38.7925 218.36V219.36C46.8421 219.36 54.5529 218.018 61.9191 215.331L61.5765 214.392L61.2339 213.453C54.0934 216.057 46.6149 217.36 38.7925 217.36V218.36ZM61.5765 214.392L61.9191 215.331C69.2536 212.657 76.1565 209.075 82.6263 204.59L82.0565 203.768L81.4867 202.946C75.1565 207.335 68.4061 210.837 61.2339 213.453L61.5765 214.392ZM82.0565 203.768L82.6188 204.595C89.0765 200.204 95.1017 195.125 100.694 189.36L99.9765 188.664L99.2588 187.968C93.758 193.638 87.8365 198.628 81.4942 202.941L82.0565 203.768ZM99.9765 188.664L100.684 189.371C106.342 183.712 111.532 177.88 116.251 171.874L115.465 171.256L114.678 170.638C110.011 176.579 104.875 182.352 99.2694 187.957L99.9765 188.664ZM225.033 26.104H226.033C226.033 24.3518 225.494 22.6724 224.464 21.0807L223.625 21.624L222.785 22.1672C223.632 23.4769 224.033 24.7842 224.033 26.104H225.033ZM223.625 21.624L224.457 21.0693C223.524 19.67 222.35 18.541 220.939 17.6945L220.425 18.552L219.91 19.4095C221.059 20.0989 222.019 21.018 222.792 22.1787L223.625 21.624ZM220.425 18.552L220.979 17.7199C219.608 16.8058 218.102 16.1225 216.468 15.6685L216.201 16.632L215.933 17.5955C217.371 17.9949 218.681 18.5916 219.87 19.384L220.425 18.552ZM216.201 16.632L216.517 15.6833C214.906 15.1465 213.212 14.7906 211.436 14.613L211.337 15.608L211.237 16.603C212.874 16.7668 214.423 17.0935 215.884 17.5807L216.201 16.632ZM211.337 15.608L211.492 14.6202C209.823 14.3566 208.192 14.224 206.601 14.224V15.224V16.224C208.081 16.224 209.607 16.3473 211.181 16.5958L211.337 15.608ZM206.601 15.224V14.224C197.113 14.224 188.379 15.6473 180.407 18.5067L180.745 19.448L181.082 20.3893C188.812 17.6167 197.315 16.224 206.601 16.224V15.224ZM180.745 19.448L180.416 18.5035C172.503 21.2557 165.102 24.6977 158.214 28.8305L158.729 29.688L159.243 30.5455C166.008 26.4863 173.284 23.1016 181.073 20.3925L180.745 19.448ZM158.729 29.688L158.24 30.5605C164.689 34.1722 171.271 37.1409 177.985 39.465L178.313 38.52L178.64 37.575C172.042 35.2911 165.568 32.3718 159.217 28.8155L158.729 29.688ZM178.313 38.52L178 39.4699C184.847 41.7232 192.035 42.848 199.561 42.848V41.848V40.848C192.238 40.848 185.261 39.7541 178.625 37.5701L178.313 38.52ZM199.561 41.848V42.848C201.595 42.848 203.75 42.6269 206.021 42.19L205.833 41.208L205.644 40.226C203.478 40.6424 201.451 40.848 199.561 40.848V41.848ZM205.833 41.208L206.021 42.19C208.303 41.7511 210.541 41.093 212.732 40.2165L212.361 39.288L211.989 38.3595C209.914 39.1896 207.799 39.8115 205.644 40.226L205.833 41.208ZM212.361 39.288L212.719 40.2213C214.996 39.3457 217.104 38.2924 219.041 37.0597L218.505 36.216L217.968 35.3723C216.15 36.5289 214.162 37.5236 212.002 38.3546L212.361 39.288ZM218.505 36.216L219.068 37.0422C221.021 35.7107 222.677 34.1922 224.025 32.4836L223.241 31.864L222.456 31.2444C221.245 32.7784 219.743 34.1613 217.941 35.3898L218.505 36.216ZM223.241 31.864L224.135 32.3112C224.496 31.5886 224.893 30.6598 225.326 29.535L224.393 29.176L223.459 28.817C223.038 29.9109 222.667 30.7741 222.346 31.4168L223.241 31.864ZM224.393 29.176L225.334 29.5123C225.783 28.2571 226.033 27.1133 226.033 26.104H225.033H224.033C224.033 26.8013 223.856 27.7055 223.451 28.8397L224.393 29.176ZM185.718 139L184.779 138.655L184.284 140H185.718V139ZM219.382 47.48V46.48H218.684L218.443 47.1348L219.382 47.48ZM232.31 47.48L233.248 47.1336L233.006 46.48H232.31V47.48ZM266.102 139V140H267.537L267.04 138.654L266.102 139ZM253.558 139L252.613 139.329L252.847 140H253.558V139ZM243.83 111.096L244.774 110.767L244.54 110.096H243.83V111.096ZM207.35 111.096V110.096H206.642L206.407 110.763L207.35 111.096ZM197.494 139V140H198.201L198.436 139.333L197.494 139ZM221.558 71.032L222.5 71.3659L222.504 71.3551L221.558 71.032ZM210.678 101.752L209.735 101.418L209.262 102.752H210.678V101.752ZM240.63 101.752V102.752H242.028L241.576 101.429L240.63 101.752ZM230.134 71.032L231.08 70.7087L231.077 70.7016L230.134 71.032ZM226.038 58.104L226.997 57.821L226.785 57.104H226.038V58.104ZM225.782 58.104V57.104H225.049L224.828 57.8021L225.782 58.104ZM185.718 139L186.656 139.345L220.32 47.8252L219.382 47.48L218.443 47.1348L184.779 138.655L185.718 139ZM219.382 47.48V48.48H232.31V47.48V46.48H219.382V47.48ZM232.31 47.48L231.371 47.8264L265.163 139.346L266.102 139L267.04 138.654L233.248 47.1336L232.31 47.48ZM266.102 139V138H253.558V139V140H266.102V139ZM253.558 139L254.502 138.671L244.774 110.767L243.83 111.096L242.885 111.425L252.613 139.329L253.558 139ZM243.83 111.096V110.096H207.35V111.096V112.096H243.83V111.096ZM207.35 111.096L206.407 110.763L196.551 138.667L197.494 139L198.436 139.333L208.292 111.429L207.35 111.096ZM197.494 139V138H185.718V139V140H197.494V139ZM221.558 71.032L220.615 70.6982L209.735 101.418L210.678 101.752L211.62 102.086L222.5 71.3658L221.558 71.032ZM210.678 101.752V102.752H240.63V101.752V100.752H210.678V101.752ZM240.63 101.752L241.576 101.429L231.08 70.7087L230.134 71.032L229.187 71.3553L239.683 102.075L240.63 101.752ZM230.134 71.032L231.077 70.7016C230.188 68.1599 229.168 64.9424 228.369 62.3531C227.97 61.06 227.627 59.9264 227.383 59.1162C227.261 58.7112 227.165 58.387 227.098 58.1643C227.065 58.053 227.04 57.967 227.023 57.9089C227.014 57.8798 227.007 57.8578 227.003 57.843C227.001 57.8356 226.999 57.8301 226.998 57.8264C226.998 57.8246 226.997 57.8232 226.997 57.8223C226.997 57.8218 226.997 57.8215 226.997 57.8213C226.997 57.8212 226.997 57.8211 226.997 57.821C226.997 57.821 226.997 57.821 226.038 58.104C225.078 58.387 225.078 58.3871 225.078 58.3871C225.078 58.3872 225.078 58.3873 225.079 58.3874C225.079 58.3877 225.079 58.3881 225.079 58.3886C225.079 58.3896 225.08 58.391 225.08 58.3929C225.081 58.3968 225.083 58.4025 225.085 58.4101C225.09 58.4252 225.096 58.4476 225.105 58.477C225.122 58.5358 225.148 58.6225 225.182 58.7347C225.248 58.959 225.346 59.2848 225.468 59.6918C225.712 60.5056 226.057 61.644 226.458 62.9429C227.259 65.5375 228.287 68.7841 229.19 71.3623L230.134 71.032ZM226.038 58.104V57.104H225.782V58.104V59.104H226.038V58.104ZM225.782 58.104C224.828 57.8021 224.828 57.8021 224.828 57.8022C224.828 57.8022 224.828 57.8023 224.828 57.8024C224.828 57.8027 224.828 57.803 224.828 57.8034C224.827 57.8044 224.827 57.8057 224.826 57.8076C224.825 57.8112 224.824 57.8168 224.821 57.8241C224.817 57.8387 224.81 57.8605 224.801 57.8892C224.782 57.9465 224.755 58.0314 224.72 58.1414C224.651 58.3612 224.549 58.6813 224.421 59.0819C224.165 59.8831 223.805 61.006 223.39 62.2926C222.558 64.8673 221.504 68.0929 220.611 70.7089L221.558 71.032L222.504 71.3551C223.403 68.723 224.461 65.4847 225.293 62.9073C225.71 61.618 226.07 60.4929 226.326 59.6901C226.454 59.2886 226.556 58.9677 226.627 58.7471C226.662 58.6368 226.689 58.5516 226.707 58.4939C226.716 58.465 226.723 58.4431 226.728 58.4283C226.73 58.4209 226.732 58.4153 226.733 58.4116C226.734 58.4097 226.734 58.4083 226.734 58.4073C226.735 58.4069 226.735 58.4065 226.735 58.4063C226.735 58.4061 226.735 58.4061 226.735 58.406C226.735 58.4059 226.735 58.4059 225.782 58.104ZM276.014 139H275.014V140H276.014V139ZM276.014 47.48V46.48H275.014V47.48H276.014ZM290.734 47.48L291.665 47.1162L291.416 46.48H290.734V47.48ZM320.43 123.512L319.498 123.876L319.747 124.512H320.43V123.512ZM320.686 123.512V124.512H321.371L321.618 123.873L320.686 123.512ZM350.126 47.48V46.48H349.44L349.193 47.1189L350.126 47.48ZM365.102 47.48H366.102V46.48H365.102V47.48ZM365.102 139V140H366.102V139H365.102ZM354.094 139H353.094V140H354.094V139ZM354.094 63.736H355.094V62.736H354.094V63.736ZM353.838 63.736V62.736H353.121L352.891 63.4147L353.838 63.736ZM349.742 75.256L350.672 75.6222L350.676 75.6131L349.742 75.256ZM324.654 139V140H325.335L325.584 139.366L324.654 139ZM315.822 139L314.891 139.366L315.14 140H315.822V139ZM290.734 75.256L289.801 75.6184L289.803 75.6222L290.734 75.256ZM286.638 63.736L287.586 63.4198L287.358 62.736H286.638V63.736ZM286.382 63.736V62.736H285.382V63.736H286.382ZM286.382 139V140H287.382V139H286.382ZM276.014 139H277.014V47.48H276.014H275.014V139H276.014ZM276.014 47.48V48.48H290.734V47.48V46.48H276.014V47.48ZM290.734 47.48L289.802 47.8438L319.498 123.876L320.43 123.512L321.361 123.148L291.665 47.1162L290.734 47.48ZM320.43 123.512V124.512H320.686V123.512V122.512H320.43V123.512ZM320.686 123.512L321.618 123.873L351.058 47.8411L350.126 47.48L349.193 47.1189L319.753 123.151L320.686 123.512ZM350.126 47.48V48.48H365.102V47.48V46.48H350.126V47.48ZM365.102 47.48H364.102V139H365.102H366.102V47.48H365.102ZM365.102 139V138H354.094V139V140H365.102V139ZM354.094 139H355.094V63.736H354.094H353.094V139H354.094ZM354.094 63.736V62.736H353.838V63.736V64.736H354.094V63.736ZM353.838 63.736C352.891 63.4147 352.891 63.4147 352.891 63.4148C352.89 63.4148 352.89 63.4149 352.89 63.415C352.89 63.4152 352.89 63.4155 352.89 63.4159C352.89 63.4168 352.889 63.418 352.889 63.4197C352.888 63.4231 352.886 63.4283 352.884 63.435C352.879 63.4486 352.872 63.4689 352.863 63.4955C352.845 63.5489 352.818 63.6277 352.783 63.7297C352.714 63.9336 352.612 64.23 352.486 64.5993C352.232 65.3381 351.877 66.3683 351.469 67.5342C350.654 69.8688 349.634 72.7373 348.807 74.8989L349.742 75.256L350.676 75.6131C351.513 73.4227 352.541 70.5312 353.358 68.1938C353.766 67.0237 354.123 65.9899 354.377 65.2487C354.505 64.878 354.606 64.5804 354.676 64.3753C354.711 64.2728 354.738 64.1934 354.757 64.1396C354.766 64.1127 354.773 64.0922 354.777 64.0783C354.78 64.0714 354.781 64.0662 354.783 64.0627C354.783 64.0609 354.784 64.0596 354.784 64.0587C354.784 64.0582 354.784 64.0579 354.784 64.0577C354.784 64.0576 354.784 64.0575 354.784 64.0574C354.784 64.0573 354.784 64.0573 353.838 63.736ZM349.742 75.256L348.811 74.8898L323.723 138.634L324.654 139L325.584 139.366L350.672 75.6222L349.742 75.256ZM324.654 139V138H315.822V139V140H324.654V139ZM315.822 139L316.752 138.634L291.664 74.8898L290.734 75.256L289.803 75.6222L314.891 139.366L315.822 139ZM290.734 75.256L291.666 74.8936C290.776 72.6072 289.757 69.7412 288.958 67.44C288.559 66.2908 288.216 65.2852 287.973 64.567C287.851 64.208 287.754 63.9208 287.688 63.7236C287.655 63.625 287.629 63.5489 287.612 63.4975C287.604 63.4718 287.597 63.4523 287.593 63.4392C287.591 63.4327 287.589 63.4278 287.588 63.4245C287.587 63.4229 287.587 63.4217 287.587 63.4209C287.586 63.4205 287.586 63.4202 287.586 63.42C287.586 63.4199 287.586 63.4199 287.586 63.4198C287.586 63.4198 287.586 63.4198 286.638 63.736C285.689 64.0522 285.689 64.0523 285.689 64.0523C285.689 64.0524 285.689 64.0525 285.689 64.0526C285.689 64.0528 285.689 64.0532 285.689 64.0536C285.69 64.0545 285.69 64.0558 285.691 64.0575C285.692 64.0609 285.693 64.066 285.696 64.0727C285.7 64.0861 285.707 64.106 285.715 64.132C285.733 64.1841 285.759 64.261 285.792 64.3604C285.859 64.5592 285.956 64.848 286.078 65.209C286.323 65.9308 286.668 66.9412 287.069 68.096C287.87 70.4028 288.899 73.2968 289.801 75.6184L290.734 75.256ZM286.638 63.736V62.736H286.382V63.736V64.736H286.638V63.736ZM286.382 63.736H285.382V139H286.382H287.382V63.736H286.382ZM286.382 139V138H276.014V139V140H286.382V139ZM382.264 139H381.264V140H382.264V139ZM382.264 47.48V46.48H381.264V47.48H382.264ZM446.904 47.48H447.904V46.48H446.904V47.48ZM446.904 57.592V58.592H447.904V57.592H446.904ZM393.784 57.592V56.592H392.784V57.592H393.784ZM393.784 86.52H392.784V87.52H393.784V86.52ZM442.04 86.52H443.04V85.52H442.04V86.52ZM442.04 96.248V97.248H443.04V96.248H442.04ZM393.784 96.248V95.248H392.784V96.248H393.784ZM393.784 128.376H392.784V129.376H393.784V128.376ZM448.44 128.376H449.44V127.376H448.44V128.376ZM448.44 139V140H449.44V139H448.44ZM382.264 139H383.264V47.48H382.264H381.264V139H382.264ZM382.264 47.48V48.48H446.904V47.48V46.48H382.264V47.48ZM446.904 47.48H445.904V57.592H446.904H447.904V47.48H446.904ZM446.904 57.592V56.592H393.784V57.592V58.592H446.904V57.592ZM393.784 57.592H392.784V86.52H393.784H394.784V57.592H393.784ZM393.784 86.52V87.52H442.04V86.52V85.52H393.784V86.52ZM442.04 86.52H441.04V96.248H442.04H443.04V86.52H442.04ZM442.04 96.248V95.248H393.784V96.248V97.248H442.04V96.248ZM393.784 96.248H392.784V128.376H393.784H394.784V96.248H393.784ZM393.784 128.376V129.376H448.44V128.376V127.376H393.784V128.376ZM448.44 128.376H447.44V139H448.44H449.44V128.376H448.44ZM448.44 139V138H382.264V139V140H448.44V139ZM523.608 140.92V139.92C510.044 139.92 499.12 134.935 491.579 126.647C484.029 118.348 479.808 106.666 479.808 93.176H478.808H477.808C477.808 107.078 482.162 119.268 490.1 127.993C498.047 136.729 509.523 141.92 523.608 141.92V140.92ZM478.808 93.176H479.808C479.808 79.6863 484.029 68.0036 491.579 59.7049C499.12 51.4165 510.044 46.432 523.608 46.432V45.432V44.432C509.523 44.432 498.047 49.6235 490.1 58.359C482.162 67.0844 477.808 79.2737 477.808 93.176H478.808ZM523.608 45.432V46.432C537.171 46.432 548.095 51.4165 555.636 59.7049C563.186 68.0036 567.408 79.6863 567.408 93.176H568.408H569.408C569.408 79.2737 565.053 67.0844 557.115 58.359C549.168 49.6235 537.692 44.432 523.608 44.432V45.432ZM568.408 93.176H567.408C567.408 106.666 563.186 118.348 555.636 126.647C548.095 134.935 537.171 139.92 523.608 139.92V140.92V141.92C537.692 141.92 549.168 136.729 557.115 127.993C565.053 119.268 569.408 107.078 569.408 93.176H568.408ZM523.608 130.808V131.808C534.633 131.808 543.18 127.662 548.954 120.694C554.707 113.75 557.632 104.096 557.632 93.176H556.632H555.632C555.632 103.76 552.796 112.922 547.413 119.418C542.051 125.89 534.086 129.808 523.608 129.808V130.808ZM556.632 93.176H557.632C557.632 82.2563 554.707 72.571 548.955 65.5958C543.183 58.5965 534.636 54.416 523.608 54.416V55.416V56.416C534.084 56.416 542.048 60.3634 547.412 66.8682C552.796 73.397 555.632 82.5917 555.632 93.176H556.632ZM523.608 55.416V54.416C512.58 54.416 504.032 58.5965 498.26 65.5958C492.508 72.571 489.583 82.2563 489.583 93.176H490.583H491.583C491.583 82.5917 494.419 73.397 499.803 66.8682C505.167 60.3634 513.132 56.416 523.608 56.416V55.416ZM490.583 93.176H489.583C489.583 104.096 492.508 113.75 498.261 120.694C504.035 127.662 512.582 131.808 523.608 131.808V130.808V129.808C513.129 129.808 505.164 125.89 499.802 119.418C494.419 112.922 491.583 103.76 491.583 93.176H490.583ZM602.215 139L601.27 139.329L601.504 140H602.215V139ZM570.343 47.48V46.48H568.935L569.398 47.8089L570.343 47.48ZM582.759 47.48L583.708 47.1659L583.481 46.48H582.759V47.48ZM605.287 115.576L604.337 115.89L604.338 115.892L605.287 115.576ZM608.871 127.864L607.905 128.125L608.105 128.864H608.871V127.864ZM609.127 127.864V128.864H609.896L610.093 128.121L609.127 127.864ZM612.711 115.576L613.656 115.901L613.659 115.894L613.661 115.887L612.711 115.576ZM634.983 47.48V46.48H634.257L634.032 47.1691L634.983 47.48ZM647.015 47.48L647.958 47.8112L648.425 46.48H647.015V47.48ZM614.887 139V140H615.595L615.83 139.331L614.887 139ZM602.215 139L603.159 138.671L571.287 47.1511L570.343 47.48L569.398 47.8089L601.27 139.329L602.215 139ZM570.343 47.48V48.48H582.759V47.48V46.48H570.343V47.48ZM582.759 47.48L581.809 47.7941L604.337 115.89L605.287 115.576L606.236 115.262L583.708 47.1659L582.759 47.48ZM605.287 115.576L604.338 115.892C605.034 117.98 605.924 121.033 606.644 123.576C607.003 124.845 607.319 125.983 607.544 126.803C607.657 127.213 607.747 127.544 607.809 127.772C607.84 127.886 607.864 127.974 607.881 128.034C607.889 128.064 607.895 128.087 607.899 128.102C607.901 128.109 607.902 128.115 607.904 128.119C607.904 128.121 607.904 128.122 607.905 128.123C607.905 128.124 607.905 128.124 607.905 128.124C607.905 128.124 607.905 128.124 607.905 128.124C607.905 128.125 607.905 128.125 608.871 127.864C609.836 127.603 609.836 127.603 609.836 127.603C609.836 127.603 609.836 127.603 609.836 127.603C609.836 127.603 609.836 127.602 609.836 127.602C609.835 127.601 609.835 127.599 609.834 127.597C609.833 127.593 609.832 127.588 609.83 127.58C609.825 127.564 609.819 127.541 609.811 127.511C609.795 127.45 609.77 127.361 609.739 127.247C609.677 127.017 609.586 126.685 609.473 126.273C609.246 125.449 608.93 124.307 608.569 123.032C607.849 120.487 606.947 117.396 606.235 115.26L605.287 115.576ZM608.871 127.864V128.864H609.127V127.864V126.864H608.871V127.864ZM609.127 127.864C610.093 128.121 610.093 128.121 610.093 128.121C610.093 128.121 610.093 128.121 610.093 128.12C610.093 128.12 610.093 128.12 610.093 128.119C610.094 128.118 610.094 128.117 610.094 128.115C610.096 128.111 610.097 128.105 610.099 128.098C610.103 128.082 610.109 128.059 610.117 128.029C610.134 127.968 610.158 127.879 610.189 127.763C610.251 127.532 610.341 127.197 610.454 126.782C610.679 125.952 610.994 124.803 611.353 123.527C612.073 120.966 612.962 117.919 613.656 115.901L612.711 115.576L611.765 115.251C611.051 117.329 610.148 120.426 609.428 122.985C609.067 124.269 608.75 125.424 608.523 126.258C608.41 126.675 608.319 127.012 608.257 127.245C608.226 127.361 608.201 127.452 608.185 127.513C608.177 127.544 608.171 127.567 608.166 127.583C608.164 127.591 608.163 127.597 608.162 127.601C608.161 127.603 608.161 127.605 608.16 127.606C608.16 127.606 608.16 127.607 608.16 127.607C608.16 127.607 608.16 127.607 608.16 127.607C608.16 127.607 608.16 127.607 609.127 127.864ZM612.711 115.576L613.661 115.887L635.933 47.7909L634.983 47.48L634.032 47.1691L611.76 115.265L612.711 115.576ZM634.983 47.48V48.48H647.015V47.48V46.48H634.983V47.48ZM647.015 47.48L646.071 47.1488L613.943 138.669L614.887 139L615.83 139.331L647.958 47.8112L647.015 47.48ZM614.887 139V138H602.215V139V140H614.887V139ZM656.889 139H655.889V140H656.889V139ZM656.889 47.48V46.48H655.889V47.48H656.889ZM721.529 47.48H722.529V46.48H721.529V47.48ZM721.529 57.592V58.592H722.529V57.592H721.529ZM668.409 57.592V56.592H667.409V57.592H668.409ZM668.409 86.52H667.409V87.52H668.409V86.52ZM716.665 86.52H717.665V85.52H716.665V86.52ZM716.665 96.248V97.248H717.665V96.248H716.665ZM668.409 96.248V95.248H667.409V96.248H668.409ZM668.409 128.376H667.409V129.376H668.409V128.376ZM723.065 128.376H724.065V127.376H723.065V128.376ZM723.065 139V140H724.065V139H723.065ZM656.889 139H657.889V47.48H656.889H655.889V139H656.889ZM656.889 47.48V48.48H721.529V47.48V46.48H656.889V47.48ZM721.529 47.48H720.529V57.592H721.529H722.529V47.48H721.529ZM721.529 57.592V56.592H668.409V57.592V58.592H721.529V57.592ZM668.409 57.592H667.409V86.52H668.409H669.409V57.592H668.409ZM668.409 86.52V87.52H716.665V86.52V85.52H668.409V86.52ZM716.665 86.52H715.665V96.248H716.665H717.665V86.52H716.665ZM716.665 96.248V95.248H668.409V96.248V97.248H716.665V96.248ZM668.409 96.248H667.409V128.376H668.409H669.409V96.248H668.409ZM668.409 128.376V129.376H723.065V128.376V127.376H668.409V128.376ZM723.065 128.376H722.065V139H723.065H724.065V128.376H723.065ZM723.065 139V138H656.889V139V140H723.065V139ZM736.514 139H735.514V140H736.514V139ZM736.514 47.48V46.48H735.514V47.48H736.514ZM790.402 95.224L790.092 94.2731L789.402 94.4979V95.224H790.402ZM790.402 95.608H789.402V96.3134L790.066 96.55L790.402 95.608ZM803.586 118.904L802.588 118.97L802.588 118.973L803.586 118.904ZM807.81 138.488H808.81V137.964L808.379 137.666L807.81 138.488ZM807.81 139V140H808.81V139H807.81ZM795.394 139L794.739 139.756L795.02 140H795.394V139ZM792.066 118.52L793.063 118.453L793.063 118.453L792.066 118.52ZM748.034 100.344V99.344H747.034V100.344H748.034ZM748.034 139V140H749.034V139H748.034ZM748.034 57.464V56.464H747.034V57.464H748.034ZM748.034 91H747.034V92H748.034V91ZM736.514 139H737.514V47.48H736.514H735.514V139H736.514ZM736.514 47.48V48.48H779.266V47.48V46.48H736.514V47.48ZM779.266 47.48V48.48C787.12 48.48 793.615 50.9399 798.137 55.1406C802.652 59.3355 805.274 65.3336 805.274 72.568H806.274H807.274C807.274 64.8264 804.455 58.2805 799.498 53.6754C794.548 49.0761 787.539 46.48 779.266 46.48V47.48ZM806.274 72.568H805.274C805.274 77.9928 804.089 82.5501 801.638 86.1669C799.191 89.7759 795.423 92.5373 790.092 94.2731L790.402 95.224L790.711 96.1749C796.388 94.3267 800.556 91.3281 803.293 87.2891C806.026 83.2579 807.274 78.2791 807.274 72.568H806.274ZM790.402 95.224H789.402V95.608H790.402H791.402V95.224H790.402ZM790.402 95.608L790.066 96.55C794.554 98.1484 797.407 100.439 799.283 103.893C801.191 107.407 802.142 112.218 802.588 118.97L803.586 118.904L804.583 118.838C804.133 112.022 803.164 106.849 801.04 102.939C798.884 98.9692 795.593 96.3955 790.737 94.666L790.402 95.608ZM803.586 118.904L802.588 118.973C803.101 126.348 803.745 131.026 804.487 134.024C805.22 136.99 806.094 138.517 807.24 139.31L807.81 138.488L808.379 137.666C807.861 137.307 807.135 136.402 806.428 133.544C805.73 130.718 805.094 126.18 804.583 118.835L803.586 118.904ZM807.81 138.488H806.81V139H807.81H808.81V138.488H807.81ZM807.81 139V138H795.394V139V140H807.81V139ZM795.394 139L796.048 138.244C795.376 137.662 794.84 136.7 794.382 133.743C793.926 130.804 793.576 126.151 793.063 118.453L792.066 118.52L791.068 118.587C791.579 126.249 791.933 131.004 792.405 134.049C792.875 137.076 793.491 138.674 794.739 139.756L795.394 139ZM792.066 118.52L793.063 118.453C792.609 111.642 791.01 106.791 787.749 103.67C784.481 100.542 779.749 99.344 773.506 99.344V100.344V101.344C779.55 101.344 783.65 102.514 786.366 105.114C789.089 107.721 790.626 111.958 791.068 118.587L792.066 118.52ZM773.506 100.344V99.344H748.034V100.344V101.344H773.506V100.344ZM748.034 100.344H747.034V139H748.034H749.034V100.344H748.034ZM748.034 139V138H736.514V139V140H748.034V139ZM748.034 57.464H747.034V91H748.034H749.034V57.464H748.034ZM748.034 91V92H775.17V91V90H748.034V91ZM775.17 91V92C781.725 92 786.798 90.3611 790.241 87.2454C793.698 84.1164 795.37 79.6266 795.37 74.232H794.37H793.37C793.37 79.2054 791.841 83.0996 788.898 85.7625C785.941 88.4388 781.414 90 775.17 90V91ZM794.37 74.232H795.37C795.37 68.5303 794.06 64.0133 790.817 60.9455C787.587 57.8906 782.64 56.464 775.81 56.464V57.464V58.464C782.419 58.464 786.752 59.8534 789.442 62.3985C792.119 64.9307 793.37 68.7977 793.37 74.232H794.37ZM775.81 57.464V56.464H748.034V57.464V58.464H775.81V57.464Z" fill="white" mask="url(#path-1-outside-1_161_36)"/>
</svg>
