<svg width="368" height="86" viewBox="0 0 368 86" fill="none" xmlns="http://www.w3.org/2000/svg">
<path d="M53.8023 37.48V15.24H57.4023V11.68H69.0023V15.24H72.6423V26.8H69.0023V30.36H58.2023V37.48H53.8023ZM58.2023 25.84H68.2023V16.2H58.2023V25.84ZM81.0742 37.48V33.92H77.4742V11.68H81.8742V33H91.8742V29.4H96.3142V33.92H92.6742V37.48H81.0742ZM101.146 37.48V18.76H104.746V15.24H108.346V11.68H112.746V15.24H116.346V18.76H119.986V37.48H115.546V30.36H105.546V37.48H101.146ZM105.546 25.84H115.546V19.72H111.986V16.2H109.106V19.72H105.546V25.84ZM130.026 37.48V23.24H126.426V19.72H122.826V11.68H127.226V18.76H130.786V22.36H133.666V18.76H137.226V11.68H141.666V19.72H138.026V23.24H134.426V37.48H130.026ZM161.705 37.48V16.2H158.905V19.72H154.505V15.24H158.105V11.68H169.705V15.24H173.345V19.72H168.905V16.2H166.105V37.48H161.705ZM176.966 37.48V11.68H181.366V22.36H184.166V18.76H188.566V22.36H191.366V11.68H195.806V37.48H191.366V26.8H181.366V37.48H176.966ZM200.638 37.48V15.24H204.238V11.68H215.838V15.24H219.478V26.8H215.838V30.36H214.078V33H217.638V37.48H213.278V33.92H209.638V30.36H205.038V37.48H200.638ZM205.038 25.84H215.038V16.2H205.038V25.84ZM227.91 37.48V33.92H224.31V15.24H227.91V11.68H239.51V15.24H243.15V33.92H239.51V37.48H227.91ZM228.71 33H238.71V16.2H228.71V33ZM251.582 37.48V33.92H247.982V11.68H252.382V33H262.382V11.68H266.822V33.92H263.182V37.48H251.582ZM275.254 37.48V33.92H271.654V15.24H275.254V11.68H286.854V15.24H290.494V23.24H286.054V16.2H276.054V33H286.054V30.36H282.494V26.8H278.854V22.36H283.254V25.84H290.494V33.92H286.854V37.48H275.254ZM295.326 37.48V11.68H299.726V22.36H302.526V18.76H306.926V22.36H309.726V11.68H314.166V37.48H309.726V26.8H299.726V37.48H295.326ZM142.031 85.48V81.92H138.431V59.68H142.831V81H152.831V77.4H157.271V81.92H153.631V85.48H142.031ZM162.103 85.48V81H165.703V64.2H162.103V59.68H173.703V64.2H170.063V81H173.703V85.48H162.103ZM178.548 85.48V59.68H193.748V63.24H197.388V67.72H192.948V64.2H182.948V70.36H190.148V74.8H182.948V85.48H178.548ZM205.039 85.48V81.92H201.439V63.24H205.039V59.68H216.639V63.24H220.279V67.72H215.839V64.2H205.839V70.36H213.039V74.8H205.839V81H215.839V77.4H220.279V81.92H216.639V85.48H205.039ZM225.111 78.36V59.68H229.511V78.36H225.111ZM225.111 85.48V81H229.511V85.48H225.111Z" fill="black"/>
</svg>
