<svg width="268" height="48" viewBox="0 0 268 48" fill="none" xmlns="http://www.w3.org/2000/svg">
<path d="M2.43125 37.48V15.24H6.03125V11.68H17.6313V15.24H21.2713V26.8H17.6313V30.36H6.83125V37.48H2.43125ZM6.83125 25.84H16.8313V16.2H6.83125V25.84ZM26.1031 37.48V15.24H29.7031V11.68H41.3031V15.24H44.9431V26.8H41.3031V30.36H39.5431V33H43.1031V37.48H38.7431V33.92H35.1031V30.36H30.5031V37.48H26.1031ZM30.5031 25.84H40.5031V16.2H30.5031V25.84ZM53.375 37.48V33.92H49.775V15.24H53.375V11.68H64.975V15.24H68.615V19.72H64.175V16.2H54.175V22.36H61.375V26.8H54.175V33H64.175V29.4H68.615V33.92H64.975V37.48H53.375ZM77.0469 37.48V33.92H73.4469V29.4H77.8469V33H87.8469V26.8H77.0469V23.24H73.4469V15.24H77.0469V11.68H88.6469V15.24H92.2869V19.72H87.8469V16.2H77.8469V22.36H88.6469V25.84H92.2869V33.92H88.6469V37.48H77.0469ZM100.719 37.48V33.92H97.1188V29.4H101.519V33H111.519V26.8H100.719V23.24H97.1188V15.24H100.719V11.68H112.319V15.24H115.959V19.72H111.519V16.2H101.519V22.36H112.319V25.84H115.959V33.92H112.319V37.48H100.719ZM135.998 37.48V16.2H133.198V19.72H128.798V15.24H132.398V11.68H143.998V15.24H147.638V19.72H143.198V16.2H140.398V37.48H135.998ZM154.859 37.48V33.92H151.259V15.24H154.859V11.68H166.459V15.24H170.099V33.92H166.459V37.48H154.859ZM155.659 33H165.659V16.2H155.659V33ZM186.539 37.48V33.92H182.939V29.4H187.339V33H197.339V26.8H186.539V23.24H182.939V15.24H186.539V11.68H198.139V15.24H201.779V19.72H197.339V16.2H187.339V22.36H198.139V25.84H201.779V33.92H198.139V37.48H186.539ZM206.611 37.48V15.24H210.211V11.68H221.811V15.24H225.451V26.8H221.811V30.36H211.011V37.48H206.611ZM211.011 25.84H221.011V16.2H211.011V25.84ZM230.283 37.48V33H233.883V16.2H230.283V11.68H241.883V16.2H238.243V33H241.883V37.48H230.283ZM246.728 37.48V11.68H251.128V15.24H254.688V18.76H258.328V29.4H261.128V11.68H265.568V37.48H261.128V33.92H257.568V30.36H253.928V19.72H251.128V37.48H246.728Z" fill="black"/>
</svg>
