<svg width="138" height="19" viewBox="0 0 138 19" fill="none" xmlns="http://www.w3.org/2000/svg">
<path d="M4.032 18L0.096 5.592H2.184L4.368 13.248C4.656 14.28 5.04 15.912 5.04 15.912H5.088C5.088 15.912 5.448 14.28 5.712 13.296L7.8 5.592H9.84L11.856 13.296C12.12 14.304 12.456 15.912 12.456 15.912H12.504C12.504 15.912 12.888 14.28 13.2 13.248L15.504 5.592H17.52L13.464 18H11.472L9.408 10.488C9.12 9.456 8.808 7.896 8.808 7.896H8.76C8.76 7.896 8.424 9.456 8.136 10.488L6.048 18H4.032ZM20.889 0.839999V7.224H20.937C21.825 6.048 23.073 5.304 24.873 5.304C27.465 5.304 29.049 6.72 29.049 9.288V18H27.105V9.456C27.105 7.848 26.049 6.936 24.297 6.936C22.329 6.936 20.889 8.328 20.889 10.368V18H18.945V0.839999H20.889ZM31.6247 18V5.592H33.5687V18H31.6247ZM31.6247 3.24V0.839999H33.5687V3.24H31.6247ZM41.5224 18.336C37.8264 18.336 35.5224 15.408 35.5224 11.808C35.5224 8.208 37.8264 5.28 41.5224 5.28C44.4504 5.28 46.3944 6.96 46.8264 9.6H44.8584C44.5704 7.92 43.3944 6.888 41.5224 6.888C38.8824 6.888 37.5144 9.072 37.5144 11.808C37.5144 14.544 38.8824 16.704 41.5224 16.704C43.5384 16.704 44.7384 15.552 44.9064 13.632H46.8264C46.5624 16.608 44.6184 18.336 41.5224 18.336ZM50.6078 0.839999V7.224H50.6558C51.5438 6.048 52.7918 5.304 54.5918 5.304C57.1838 5.304 58.7678 6.72 58.7678 9.288V18H56.8238V9.456C56.8238 7.848 55.7678 6.936 54.0158 6.936C52.0478 6.936 50.6078 8.328 50.6078 10.368V18H48.6638V0.839999H50.6078ZM70.4678 18.336C66.7718 18.336 64.4678 15.408 64.4678 11.808C64.4678 8.208 66.7718 5.28 70.4678 5.28C74.1878 5.28 76.4438 8.208 76.4438 11.808C76.4438 15.408 74.1878 18.336 70.4678 18.336ZM70.4678 16.704C73.1078 16.704 74.4518 14.544 74.4518 11.808C74.4518 9.072 73.1078 6.888 70.4678 6.888C67.8278 6.888 66.4598 9.072 66.4598 11.808C66.4598 14.544 67.8278 16.704 70.4678 16.704ZM80.3265 5.592V7.224H80.3745C81.2625 6.048 82.5105 5.304 84.3105 5.304C86.9025 5.304 88.4865 6.72 88.4865 9.288V18H86.5425V9.456C86.5425 7.848 85.4865 6.936 83.7345 6.936C81.7665 6.936 80.3265 8.328 80.3265 10.368V18H78.3825V5.592H80.3265ZM96.3662 18.336C92.5742 18.336 90.3662 15.408 90.3662 11.808C90.3662 8.208 92.7182 5.28 96.2462 5.28C99.9662 5.28 101.958 8.16 101.958 12.264H92.3582C92.5022 14.784 93.8702 16.704 96.3662 16.704C98.1662 16.704 99.3662 15.84 99.7982 14.16H101.694C101.118 16.824 99.1742 18.336 96.3662 18.336ZM96.2462 6.816C93.9422 6.816 92.6942 8.544 92.4062 10.8H99.8702C99.7502 8.328 98.4782 6.816 96.2462 6.816ZM106.87 13.848C106.894 11.208 107.566 9.984 109.39 8.376C110.446 7.44 111.382 6.696 111.382 5.136C111.382 3.6 110.254 2.256 108.142 2.256C105.67 2.256 104.518 3.912 104.446 6.36H102.478C102.55 3.096 104.206 0.527999 108.214 0.527999C111.598 0.527999 113.446 2.592 113.446 5.112C113.446 7.08 112.366 8.208 111.238 9.144C109.246 10.8 108.718 11.4 108.694 13.848H106.87ZM106.606 18V15.624H108.934V18H106.606ZM118.964 13.848C118.988 11.208 119.66 9.984 121.484 8.376C122.54 7.44 123.476 6.696 123.476 5.136C123.476 3.6 122.348 2.256 120.236 2.256C117.764 2.256 116.612 3.912 116.54 6.36H114.572C114.644 3.096 116.3 0.527999 120.308 0.527999C123.692 0.527999 125.54 2.592 125.54 5.112C125.54 7.08 124.46 8.208 123.332 9.144C121.34 10.8 120.812 11.4 120.788 13.848H118.964ZM118.7 18V15.624H121.028V18H118.7ZM131.058 13.848C131.082 11.208 131.754 9.984 133.578 8.376C134.634 7.44 135.57 6.696 135.57 5.136C135.57 3.6 134.442 2.256 132.33 2.256C129.858 2.256 128.706 3.912 128.634 6.36H126.666C126.738 3.096 128.394 0.527999 132.402 0.527999C135.786 0.527999 137.634 2.592 137.634 5.112C137.634 7.08 136.554 8.208 135.426 9.144C133.434 10.8 132.906 11.4 132.882 13.848H131.058ZM130.794 18V15.624H133.122V18H130.794Z" fill="black"/>
</svg>
