<svg width="305" height="22" viewBox="0 0 305 22" fill="none" xmlns="http://www.w3.org/2000/svg">
<path d="M4.032 18L0.096 5.592H2.184L4.368 13.248C4.656 14.28 5.04 15.912 5.04 15.912H5.088C5.088 15.912 5.448 14.28 5.712 13.296L7.8 5.592H9.84L11.856 13.296C12.12 14.304 12.456 15.912 12.456 15.912H12.504C12.504 15.912 12.888 14.28 13.2 13.248L15.504 5.592H17.52L13.464 18H11.472L9.408 10.488C9.12 9.456 8.808 7.896 8.808 7.896H8.76C8.76 7.896 8.424 9.456 8.136 10.488L6.048 18H4.032ZM18.945 18V5.592H20.889V18H18.945ZM18.945 3.24V0.839999H20.889V3.24H18.945ZM28.8428 18.336C25.0508 18.336 22.8428 15.408 22.8428 11.808C22.8428 8.208 25.1948 5.28 28.7228 5.28C32.4428 5.28 34.4348 8.16 34.4348 12.264H24.8348C24.9788 14.784 26.3468 16.704 28.8428 16.704C30.6428 16.704 31.8428 15.84 32.2748 14.16H34.1708C33.5948 16.824 31.6508 18.336 28.8428 18.336ZM28.7228 6.816C26.4188 6.816 25.1708 8.544 24.8828 10.8H32.3468C32.2268 8.328 30.9548 6.816 28.7228 6.816ZM39.1733 18L34.8293 5.592H36.9173L39.4853 13.464C39.8453 14.568 40.3013 16.08 40.3013 16.08H40.3493C40.3493 16.08 40.8053 14.544 41.1653 13.464L43.7813 5.592H45.7973L41.3333 18H39.1733ZM47.1638 18V5.592H49.1078V18H47.1638ZM47.1638 3.24V0.839999H49.1078V3.24H47.1638ZM57.0615 18.336C53.2695 18.336 51.0615 15.408 51.0615 11.808C51.0615 8.208 53.4135 5.28 56.9415 5.28C60.6615 5.28 62.6535 8.16 62.6535 12.264H53.0535C53.1975 14.784 54.5655 16.704 57.0615 16.704C58.8615 16.704 60.0615 15.84 60.4935 14.16H62.3895C61.8135 16.824 59.8695 18.336 57.0615 18.336ZM56.9415 6.816C54.6375 6.816 53.3895 8.544 53.1015 10.8H60.5655C60.4455 8.328 59.1735 6.816 56.9415 6.816ZM64.6264 18V0.839999H66.5704V18H64.6264ZM74.5928 18.336C70.8008 18.336 68.5928 15.408 68.5928 11.808C68.5928 8.208 70.9448 5.28 74.4728 5.28C78.1928 5.28 80.1848 8.16 80.1848 12.264H70.5848C70.7288 14.784 72.0968 16.704 74.5928 16.704C76.3928 16.704 77.5928 15.84 78.0248 14.16H79.9208C79.3448 16.824 77.4008 18.336 74.5928 18.336ZM74.4728 6.816C72.1688 6.816 70.9208 8.544 70.6328 10.8H78.0968C77.9768 8.328 76.7048 6.816 74.4728 6.816ZM84.9939 21.528C84.5619 21.528 84.2259 21.48 83.9139 21.432V19.848H83.9619C84.2019 19.896 84.4179 19.92 84.6339 19.92C85.4739 19.92 85.9059 19.56 85.9059 18.72V5.592H87.8499V18.816C87.8499 21.12 86.5779 21.528 84.9939 21.528ZM85.9059 3.24V0.839999H87.8499V3.24H85.9059ZM100.244 18.12C98.9717 18.12 98.2997 17.544 98.1077 16.272H98.0837C97.3397 17.232 96.0677 18.24 93.9557 18.24C91.6037 18.24 89.7557 17.136 89.7557 14.784C89.7557 11.856 92.0597 11.256 95.1557 10.776C96.9077 10.512 98.1317 10.344 98.1317 9C98.1317 7.608 97.1237 6.816 95.3477 6.816C93.3317 6.816 92.3237 7.68 92.2517 9.552H90.3797C90.4517 7.152 92.0357 5.352 95.3237 5.352C97.9637 5.352 99.9077 6.336 99.9077 9.288V15.192C99.9077 16.2 100.148 16.752 101.228 16.512H101.3V17.928C101.06 18.024 100.748 18.12 100.244 18.12ZM94.3877 16.752C96.9797 16.752 98.1557 14.856 98.1557 13.416V11.304C97.5077 11.712 96.3797 12.024 95.3237 12.216C93.3797 12.576 91.8197 12.912 91.8197 14.736C91.8197 16.392 93.1157 16.752 94.3877 16.752ZM108.038 18.336C104.342 18.336 102.038 15.408 102.038 11.808C102.038 8.208 104.342 5.28 108.038 5.28C110.966 5.28 112.91 6.96 113.342 9.6H111.374C111.086 7.92 109.91 6.888 108.038 6.888C105.398 6.888 104.03 9.072 104.03 11.808C104.03 14.544 105.398 16.704 108.038 16.704C110.054 16.704 111.254 15.552 111.422 13.632H113.342C113.078 16.608 111.134 18.336 108.038 18.336ZM123.339 18L118.947 11.304L117.123 13.032V18H115.179V0.839999H117.123V10.896L122.571 5.592H125.043L120.291 10.056L125.619 18H123.339ZM126.922 21.984V5.592H128.866V7.344H128.914C129.85 6.072 131.098 5.304 132.898 5.304C136.042 5.304 138.226 7.704 138.226 11.832C138.226 15.816 136.186 18.36 132.826 18.36C131.146 18.36 129.946 17.856 128.914 16.536H128.866V21.984H126.922ZM132.682 16.728C135.058 16.728 136.234 14.664 136.234 11.856C136.234 9.072 135.058 6.96 132.706 6.96C129.994 6.96 128.746 9.168 128.746 11.856C128.746 14.544 129.826 16.728 132.682 16.728ZM145.468 18.336C141.772 18.336 139.468 15.408 139.468 11.808C139.468 8.208 141.772 5.28 145.468 5.28C149.188 5.28 151.444 8.208 151.444 11.808C151.444 15.408 149.188 18.336 145.468 18.336ZM145.468 16.704C148.108 16.704 149.452 14.544 149.452 11.808C149.452 9.072 148.108 6.888 145.468 6.888C142.828 6.888 141.46 9.072 141.46 11.808C141.46 14.544 142.828 16.704 145.468 16.704ZM152.356 7.176V5.592H154.156V1.68H156.1V5.592H158.5V7.176H156.1V15.24C156.1 16.104 156.556 16.392 157.348 16.392C157.732 16.392 158.164 16.296 158.38 16.224H158.452V17.904C157.996 18 157.468 18.072 156.892 18.072C155.308 18.072 154.156 17.424 154.156 15.672V7.176H152.356ZM165.212 18.36C161.804 18.36 159.908 16.752 159.716 13.968H161.708C161.972 16.128 163.412 16.728 165.26 16.728C167.3 16.728 168.14 15.84 168.14 14.688C168.14 13.296 167.18 12.936 164.9 12.456C162.452 11.952 160.268 11.448 160.268 8.736C160.268 6.672 161.852 5.328 164.732 5.328C167.804 5.328 169.316 6.792 169.604 9.216H167.612C167.42 7.584 166.532 6.864 164.684 6.864C162.908 6.864 162.188 7.656 162.188 8.64C162.188 9.984 163.388 10.248 165.523 10.68C168.02 11.184 170.108 11.736 170.108 14.592C170.108 17.088 168.068 18.36 165.212 18.36ZM181.693 18.36C180.013 18.36 178.789 17.76 177.781 16.368H177.733V18H175.789V0.839999H177.733V7.368H177.781C178.717 6.096 179.965 5.304 181.765 5.304C184.909 5.304 187.045 7.704 187.045 11.832C187.045 15.816 185.053 18.36 181.693 18.36ZM181.549 16.728C183.925 16.728 185.053 14.664 185.053 11.856C185.053 9.072 183.925 6.96 181.573 6.96C178.861 6.96 177.613 9.168 177.613 11.856C177.613 14.64 178.909 16.728 181.549 16.728ZM190.928 5.592V7.656H190.976C191.72 6.456 193.016 5.448 194.672 5.448C195.032 5.448 195.224 5.496 195.464 5.592V7.464H195.392C195.104 7.368 194.912 7.344 194.528 7.344C192.608 7.344 190.928 8.784 190.928 11.112V18H188.984V5.592H190.928ZM206.486 18.12C205.214 18.12 204.542 17.544 204.35 16.272H204.326C203.582 17.232 202.31 18.24 200.198 18.24C197.846 18.24 195.998 17.136 195.998 14.784C195.998 11.856 198.302 11.256 201.398 10.776C203.15 10.512 204.374 10.344 204.374 9C204.374 7.608 203.366 6.816 201.59 6.816C199.574 6.816 198.566 7.68 198.494 9.552H196.622C196.694 7.152 198.278 5.352 201.566 5.352C204.206 5.352 206.15 6.336 206.15 9.288V15.192C206.15 16.2 206.39 16.752 207.47 16.512H207.542V17.928C207.302 18.024 206.99 18.12 206.486 18.12ZM200.63 16.752C203.222 16.752 204.398 14.856 204.398 13.416V11.304C203.75 11.712 202.622 12.024 201.566 12.216C199.622 12.576 198.062 12.912 198.062 14.736C198.062 16.392 199.358 16.752 200.63 16.752ZM218.816 18H216.872V16.296H216.824C215.936 17.496 214.88 18.288 213.08 18.288C210.536 18.288 208.904 16.752 208.904 14.184V5.592H210.848V14.136C210.848 15.744 211.88 16.68 213.632 16.68C215.6 16.68 216.872 15.192 216.872 13.224V5.592H218.816V18ZM226.749 18.336C223.053 18.336 220.749 15.408 220.749 11.808C220.749 8.208 223.053 5.28 226.749 5.28C229.677 5.28 231.621 6.96 232.053 9.6H230.085C229.797 7.92 228.621 6.888 226.749 6.888C224.109 6.888 222.741 9.072 222.741 11.808C222.741 14.544 224.109 16.704 226.749 16.704C228.765 16.704 229.965 15.552 230.133 13.632H232.053C231.789 16.608 229.845 18.336 226.749 18.336ZM235.834 0.839999V7.224H235.882C236.77 6.048 238.018 5.304 239.818 5.304C242.41 5.304 243.994 6.72 243.994 9.288V18H242.05V9.456C242.05 7.848 240.994 6.936 239.242 6.936C237.274 6.936 235.834 8.328 235.834 10.368V18H233.89V0.839999H235.834ZM251.274 18.36C247.866 18.36 245.97 16.752 245.778 13.968H247.77C248.034 16.128 249.474 16.728 251.322 16.728C253.362 16.728 254.202 15.84 254.202 14.688C254.202 13.296 253.242 12.936 250.962 12.456C248.514 11.952 246.33 11.448 246.33 8.736C246.33 6.672 247.914 5.328 250.794 5.328C253.866 5.328 255.378 6.792 255.666 9.216H253.674C253.482 7.584 252.594 6.864 250.746 6.864C248.97 6.864 248.25 7.656 248.25 8.64C248.25 9.984 249.45 10.248 251.586 10.68C254.082 11.184 256.17 11.736 256.17 14.592C256.17 17.088 254.13 18.36 251.274 18.36ZM257.005 7.176V5.592H258.805V1.68H260.749V5.592H263.149V7.176H260.749V15.24C260.749 16.104 261.205 16.392 261.997 16.392C262.381 16.392 262.813 16.296 263.029 16.224H263.101V17.904C262.645 18 262.117 18.072 261.541 18.072C259.957 18.072 258.805 17.424 258.805 15.672V7.176H257.005ZM273.776 18.36C270.392 18.36 268.28 15.816 268.28 11.832C268.28 7.704 270.656 5.304 273.728 5.304C275.48 5.304 276.824 6.168 277.616 7.344H277.664V0.839999H279.608V18H277.664V16.488H277.616C276.68 17.688 275.528 18.36 273.776 18.36ZM273.848 16.728C276.608 16.728 277.784 14.664 277.784 11.856C277.784 8.976 276.392 6.96 273.824 6.96C271.472 6.96 270.272 9.072 270.272 11.856C270.272 14.664 271.472 16.728 273.848 16.728ZM292.082 18H290.138V16.296H290.09C289.202 17.496 288.146 18.288 286.346 18.288C283.802 18.288 282.17 16.752 282.17 14.184V5.592H284.114V14.136C284.114 15.744 285.146 16.68 286.898 16.68C288.866 16.68 290.138 15.192 290.138 13.224V5.592H292.082V18ZM298.191 13.848C298.215 11.208 298.887 9.984 300.711 8.376C301.767 7.44 302.703 6.696 302.703 5.136C302.703 3.6 301.575 2.256 299.463 2.256C296.991 2.256 295.839 3.912 295.767 6.36H293.799C293.871 3.096 295.527 0.527999 299.535 0.527999C302.919 0.527999 304.767 2.592 304.767 5.112C304.767 7.08 303.687 8.208 302.559 9.144C300.567 10.8 300.039 11.4 300.015 13.848H298.191ZM297.927 18V15.624H300.255V18H297.927Z" fill="black"/>
</svg>
