<svg width="211" height="50" viewBox="0 0 211 50" fill="none" xmlns="http://www.w3.org/2000/svg">
<path d="M0.816 18V16.464L7.728 7.368V7.296H1.224V5.592H10.44V6.744L3.312 16.152V16.224H10.704V18H0.816ZM22.4569 18H20.5129V16.296H20.4649C19.5769 17.496 18.5209 18.288 16.7209 18.288C14.1769 18.288 12.5449 16.752 12.5449 14.184V5.592H14.4889V14.136C14.4889 15.744 15.5209 16.68 17.2729 16.68C19.2409 16.68 20.5129 15.192 20.5129 13.224V5.592H22.4569V18ZM24.2936 7.176V5.592H25.9976V3.6C25.9976 1.464 27.2216 0.696 29.2856 0.696C29.6936 0.696 30.0056 0.719999 30.2696 0.743999V2.4C29.9336 2.376 29.8376 2.376 29.6456 2.376C28.3976 2.376 27.9416 2.688 27.9416 3.696V5.592H30.2456V7.176H27.9416V18H25.9976V7.176H24.2936ZM41.5328 18.12C40.2608 18.12 39.5888 17.544 39.3968 16.272H39.3728C38.6288 17.232 37.3568 18.24 35.2448 18.24C32.8928 18.24 31.0448 17.136 31.0448 14.784C31.0448 11.856 33.3488 11.256 36.4448 10.776C38.1968 10.512 39.4208 10.344 39.4208 9C39.4208 7.608 38.4128 6.816 36.6367 6.816C34.6208 6.816 33.6128 7.68 33.5408 9.552H31.6688C31.7408 7.152 33.3248 5.352 36.6128 5.352C39.2528 5.352 41.1968 6.336 41.1968 9.288V15.192C41.1968 16.2 41.4368 16.752 42.5168 16.512H42.5887V17.928C42.3488 18.024 42.0368 18.12 41.5328 18.12ZM35.6768 16.752C38.2688 16.752 39.4448 14.856 39.4448 13.416V11.304C38.7968 11.712 37.6688 12.024 36.6128 12.216C34.6688 12.576 33.1088 12.912 33.1088 14.736C33.1088 16.392 34.4048 16.752 35.6768 16.752ZM44.0951 18V0.839999H46.0391V18H44.0951ZM48.8295 18V0.839999H50.7735V18H48.8295ZM58.1959 18.36C54.7879 18.36 52.8919 16.752 52.6999 13.968H54.6919C54.9559 16.128 56.3959 16.728 58.2439 16.728C60.2839 16.728 61.1239 15.84 61.1239 14.688C61.1239 13.296 60.1639 12.936 57.8839 12.456C55.4359 11.952 53.2519 11.448 53.2519 8.736C53.2519 6.672 54.8359 5.328 57.7159 5.328C60.7879 5.328 62.2999 6.792 62.5879 9.216H60.5959C60.4039 7.584 59.5159 6.864 57.6679 6.864C55.8919 6.864 55.1719 7.656 55.1719 8.64C55.1719 9.984 56.3719 10.248 58.5079 10.68C61.0039 11.184 63.0919 11.736 63.0919 14.592C63.0919 17.088 61.0519 18.36 58.1959 18.36ZM70.8568 18.36C69.1768 18.36 67.9528 17.76 66.9448 16.368H66.8968V18H64.9528V0.839999H66.8968V7.368H66.9448C67.8808 6.096 69.1288 5.304 70.9288 5.304C74.0728 5.304 76.2088 7.704 76.2088 11.832C76.2088 15.816 74.2168 18.36 70.8568 18.36ZM70.7128 16.728C73.0888 16.728 74.2168 14.664 74.2168 11.856C74.2168 9.072 73.0888 6.96 70.7368 6.96C68.0248 6.96 66.7768 9.168 66.7768 11.856C66.7768 14.64 68.0728 16.728 70.7128 16.728ZM83.4521 18.336C79.6601 18.336 77.4521 15.408 77.4521 11.808C77.4521 8.208 79.8041 5.28 83.3321 5.28C87.0521 5.28 89.0441 8.16 89.0441 12.264H79.4441C79.5881 14.784 80.9561 16.704 83.4521 16.704C85.2521 16.704 86.4521 15.84 86.8841 14.16H88.7801C88.2041 16.824 86.2601 18.336 83.4521 18.336ZM83.3321 6.816C81.0281 6.816 79.7801 8.544 79.4921 10.8H86.9561C86.8361 8.328 85.5641 6.816 83.3321 6.816ZM95.745 18.36C92.361 18.36 90.249 15.816 90.249 11.832C90.249 7.704 92.625 5.304 95.697 5.304C97.449 5.304 98.793 6.168 99.585 7.344H99.633V0.839999H101.577V18H99.633V16.488H99.585C98.649 17.688 97.497 18.36 95.745 18.36ZM95.817 16.728C98.577 16.728 99.753 14.664 99.753 11.856C99.753 8.976 98.361 6.96 95.793 6.96C93.441 6.96 92.241 9.072 92.241 11.856C92.241 14.664 93.441 16.728 95.817 16.728ZM104.211 18V5.592H106.155V18H104.211ZM104.211 3.24V0.839999H106.155V3.24H104.211ZM110.748 5.592V7.224H110.796C111.684 6.048 112.932 5.304 114.732 5.304C117.324 5.304 118.908 6.72 118.908 9.288V18H116.964V9.456C116.964 7.848 115.908 6.936 114.156 6.936C112.188 6.936 110.748 8.328 110.748 10.368V18H108.804V5.592H110.748ZM126.428 22.128C123.212 22.128 121.388 20.832 121.172 18.696H122.972C123.164 20.064 124.46 20.592 126.38 20.592C128.66 20.592 129.932 19.56 129.932 17.4V15.648H129.884C128.972 16.824 127.988 17.568 126.212 17.568C122.996 17.568 120.788 15 120.788 11.424C120.788 7.56 123.212 5.304 126.092 5.304C127.892 5.304 129.044 6 129.884 7.176H129.932V5.592H131.876V17.328C131.876 20.592 129.716 22.128 126.428 22.128ZM126.308 15.936C129.164 15.936 130.076 13.944 130.076 11.328C130.076 8.616 128.924 6.936 126.284 6.936C123.956 6.936 122.78 8.76 122.78 11.448C122.78 14.16 124.004 15.936 126.308 15.936ZM133.723 7.176V5.592H135.523V1.68H137.467V5.592H139.867V7.176H137.467V15.24C137.467 16.104 137.923 16.392 138.715 16.392C139.099 16.392 139.531 16.296 139.747 16.224H139.819V17.904C139.363 18 138.835 18.072 138.259 18.072C136.675 18.072 135.523 17.424 135.523 15.672V7.176H133.723ZM147.062 18.336C143.27 18.336 141.062 15.408 141.062 11.808C141.062 8.208 143.414 5.28 146.942 5.28C150.662 5.28 152.654 8.16 152.654 12.264H143.054C143.198 14.784 144.566 16.704 147.062 16.704C148.862 16.704 150.062 15.84 150.494 14.16H152.39C151.814 16.824 149.87 18.336 147.062 18.336ZM146.942 6.816C144.638 6.816 143.39 8.544 143.102 10.8H150.566C150.446 8.328 149.174 6.816 146.942 6.816ZM6.624 45.336C2.928 45.336 0.624 42.408 0.624 38.808C0.624 35.208 2.928 32.28 6.624 32.28C9.552 32.28 11.496 33.96 11.928 36.6H9.96C9.672 34.92 8.496 33.888 6.624 33.888C3.984 33.888 2.616 36.072 2.616 38.808C2.616 41.544 3.984 43.704 6.624 43.704C8.64 43.704 9.84 42.552 10.008 40.632H11.928C11.664 43.608 9.72 45.336 6.624 45.336ZM15.7093 27.84V34.224H15.7573C16.6453 33.048 17.8933 32.304 19.6933 32.304C22.2853 32.304 23.8693 33.72 23.8693 36.288V45H21.9253V36.456C21.9253 34.848 20.8693 33.936 19.1173 33.936C17.1493 33.936 15.7093 35.328 15.7093 37.368V45H13.7653V27.84H15.7093ZM36.189 45.12C34.917 45.12 34.245 44.544 34.053 43.272H34.029C33.285 44.232 32.013 45.24 29.901 45.24C27.549 45.24 25.701 44.136 25.701 41.784C25.701 38.856 28.005 38.256 31.101 37.776C32.853 37.512 34.077 37.344 34.077 36C34.077 34.608 33.069 33.816 31.293 33.816C29.277 33.816 28.269 34.68 28.197 36.552H26.325C26.397 34.152 27.981 32.352 31.269 32.352C33.909 32.352 35.853 33.336 35.853 36.288V42.192C35.853 43.2 36.093 43.752 37.173 43.512H37.245V44.928C37.005 45.024 36.693 45.12 36.189 45.12ZM30.333 43.752C32.925 43.752 34.101 41.856 34.101 40.416V38.304C33.453 38.712 32.325 39.024 31.269 39.216C29.325 39.576 27.765 39.912 27.765 41.736C27.765 43.392 29.061 43.752 30.333 43.752ZM40.6234 32.592V34.224H40.6714C41.5594 33.048 42.8074 32.304 44.6074 32.304C47.1994 32.304 48.7834 33.72 48.7834 36.288V45H46.8394V36.456C46.8394 34.848 45.7834 33.936 44.0314 33.936C42.0634 33.936 40.6234 35.328 40.6234 37.368V45H38.6794V32.592H40.6234ZM56.6631 45.336C52.9671 45.336 50.6631 42.408 50.6631 38.808C50.6631 35.208 52.9671 32.28 56.6631 32.28C59.5911 32.28 61.5351 33.96 61.9671 36.6H59.9991C59.7111 34.92 58.5351 33.888 56.6631 33.888C54.0231 33.888 52.6551 36.072 52.6551 38.808C52.6551 41.544 54.0231 43.704 56.6631 43.704C58.6791 43.704 59.8791 42.552 60.0471 40.632H61.9671C61.7031 43.608 59.7591 45.336 56.6631 45.336ZM69.1084 45.336C65.3164 45.336 63.1084 42.408 63.1084 38.808C63.1084 35.208 65.4604 32.28 68.9884 32.28C72.7084 32.28 74.7004 35.16 74.7004 39.264H65.1004C65.2444 41.784 66.6124 43.704 69.1084 43.704C70.9084 43.704 72.1084 42.84 72.5404 41.16H74.4364C73.8604 43.824 71.9164 45.336 69.1084 45.336ZM68.9884 33.816C66.6844 33.816 65.4364 35.544 65.1484 37.8H72.6124C72.4924 35.328 71.2204 33.816 68.9884 33.816ZM78.5453 32.592V34.224H78.5933C79.4813 33.048 80.7293 32.304 82.5293 32.304C85.1213 32.304 86.7053 33.72 86.7053 36.288V45H84.7613V36.456C84.7613 34.848 83.7053 33.936 81.9533 33.936C79.9853 33.936 78.5453 35.328 78.5453 37.368V45H76.6013V32.592H78.5453ZM99.1209 45H97.1769V43.296H97.1289C96.2409 44.496 95.1849 45.288 93.3849 45.288C90.8409 45.288 89.2089 43.752 89.2089 41.184V32.592H91.1529V41.136C91.1529 42.744 92.1849 43.68 93.9369 43.68C95.9049 43.68 97.1769 42.192 97.1769 40.224V32.592H99.1209V45ZM103.694 32.592V34.224H103.742C104.63 33.048 105.878 32.304 107.678 32.304C110.27 32.304 111.854 33.72 111.854 36.288V45H109.91V36.456C109.91 34.848 108.854 33.936 107.102 33.936C105.134 33.936 103.694 35.328 103.694 37.368V45H101.75V32.592H103.694ZM119.373 49.128C116.157 49.128 114.333 47.832 114.117 45.696H115.917C116.109 47.064 117.405 47.592 119.325 47.592C121.605 47.592 122.877 46.56 122.877 44.4V42.648H122.829C121.917 43.824 120.933 44.568 119.157 44.568C115.941 44.568 113.733 42 113.733 38.424C113.733 34.56 116.157 32.304 119.037 32.304C120.837 32.304 121.989 33 122.829 34.176H122.877V32.592H124.821V44.328C124.821 47.592 122.661 49.128 119.373 49.128ZM119.253 42.936C122.109 42.936 123.021 40.944 123.021 38.328C123.021 35.616 121.869 33.936 119.229 33.936C116.901 33.936 115.725 35.76 115.725 38.448C115.725 41.16 116.949 42.936 119.253 42.936ZM127.533 45V27.84H129.477V45H127.533ZM137.499 45.336C133.707 45.336 131.499 42.408 131.499 38.808C131.499 35.208 133.851 32.28 137.379 32.28C141.099 32.28 143.091 35.16 143.091 39.264H133.491C133.635 41.784 135.003 43.704 137.499 43.704C139.299 43.704 140.499 42.84 140.931 41.16H142.827C142.251 43.824 140.307 45.336 137.499 45.336ZM137.379 33.816C135.075 33.816 133.827 35.544 133.539 37.8H141.003C140.883 35.328 139.611 33.816 137.379 33.816ZM144.992 45V32.592H146.936V45H144.992ZM144.992 30.24V27.84H146.936V30.24H144.992ZM154.89 45.336C151.194 45.336 148.89 42.408 148.89 38.808C148.89 35.208 151.194 32.28 154.89 32.28C157.818 32.28 159.762 33.96 160.194 36.6H158.226C157.938 34.92 156.762 33.888 154.89 33.888C152.25 33.888 150.882 36.072 150.882 38.808C150.882 41.544 152.25 43.704 154.89 43.704C156.906 43.704 158.106 42.552 158.274 40.632H160.194C159.93 43.608 157.986 45.336 154.89 45.336ZM163.975 27.84V34.224H164.023C164.911 33.048 166.159 32.304 167.959 32.304C170.551 32.304 172.135 33.72 172.135 36.288V45H170.191V36.456C170.191 34.848 169.135 33.936 167.383 33.936C165.415 33.936 163.975 35.328 163.975 37.368V45H162.031V27.84H163.975ZM176.655 27.84V34.224H176.703C177.591 33.048 178.839 32.304 180.639 32.304C183.231 32.304 184.815 33.72 184.815 36.288V45H182.871V36.456C182.871 34.848 181.815 33.936 180.063 33.936C178.095 33.936 176.655 35.328 176.655 37.368V45H174.711V27.84H176.655ZM192.694 45.336C188.902 45.336 186.694 42.408 186.694 38.808C186.694 35.208 189.046 32.28 192.574 32.28C196.294 32.28 198.286 35.16 198.286 39.264H188.686C188.83 41.784 190.198 43.704 192.694 43.704C194.494 43.704 195.694 42.84 196.126 41.16H198.022C197.446 43.824 195.502 45.336 192.694 45.336ZM192.574 33.816C190.27 33.816 189.022 35.544 188.734 37.8H196.198C196.078 35.328 194.806 33.816 192.574 33.816ZM200.187 45V32.592H202.131V45H200.187ZM200.187 30.24V27.84H202.131V30.24H200.187ZM203.989 34.176V32.592H205.789V28.68H207.733V32.592H210.133V34.176H207.733V42.24C207.733 43.104 208.189 43.392 208.981 43.392C209.365 43.392 209.797 43.296 210.013 43.224H210.085V44.904C209.629 45 209.101 45.072 208.525 45.072C206.941 45.072 205.789 44.424 205.789 42.672V34.176H203.989Z" fill="black"/>
</svg>
